<svg xmlns="http://www.w3.org/2000/svg" version="1.1" viewBox="0.00 0.00 1275.00 1275.00">
<g stroke-width="2.00" fill="none" stroke-linecap="butt">
<path stroke="#ef8080" vector-effect="non-scaling-stroke" d="
  M 737.92 583.14
  C 744.02 580.67 747.13 579.16 752.74 576.20
  C 778.80 562.42 793.70 537.29 793.74 507.86
  A 0.28 0.28 0.0 0 0 793.25 507.67
  C 772.86 530.72 749.84 551.85 721.01 563.62
  Q 714.84 566.15 708.74 568.36
  Q 703.82 570.15 688.98 573.41
  A 0.24 0.23 -18.9 0 1 688.73 573.29
  L 688.61 573.03
  A 0.38 0.38 0.0 0 1 688.82 572.50
  Q 712.94 563.59 733.06 547.56
  C 755.70 529.52 770.60 506.20 769.80 476.61
  A 0.40 0.39 60.2 0 0 769.07 476.41
  Q 763.32 485.68 756.55 493.09
  C 752.53 497.49 750.32 500.31 745.98 504.48
  C 729.40 520.40 710.70 532.71 689.86 544.36
  Q 680.09 549.83 631.33 574.86
  Q 609.80 585.91 594.16 597.66
  C 583.27 605.85 574.16 615.53 568.79 628.18
  C 562.10 643.93 567.54 659.70 574.49 674.68
  A 6.97 6.88 35.7 0 1 575.11 678.34
  C 572.64 702.42 584.80 724.59 609.80 729.27
  C 614.83 730.21 621.45 730.06 626.75 730.05
  Q 639.39 730.05 711.00 730.06
  C 714.52 730.06 714.33 726.92 714.35 723.60
  C 714.37 719.67 715.37 714.35 710.75 714.38
  Q 684.00 714.51 647.82 714.32
  C 633.83 714.24 633.37 698.94 633.36 688.98
  Q 633.35 679.63 633.46 673.00
  C 633.63 662.66 636.34 655.56 648.25 655.50
  Q 671.73 655.38 710.00 655.53
  Q 714.11 655.54 714.04 651.24
  Q 713.90 643.25 713.86 642.92
  C 713.28 638.92 709.18 640.19 706.39 639.81
  A 0.23 0.23 0.0 0 1 706.36 639.36
  Q 716.26 636.25 726.09 630.60
  A 0.30 0.30 0.0 0 0 725.94 630.04
  Q 713.02 630.09 702.25 629.81
  Q 669.56 628.96 638.02 620.85
  A 0.14 0.14 0.0 0 1 638.07 620.57
  Q 659.85 622.11 679.99 622.73
  Q 697.22 623.26 713.68 621.40
  Q 723.82 620.26 734.11 616.66
  Q 758.88 608.00 769.98 584.20
  A 0.48 0.48 0.0 0 0 769.41 583.54
  Q 750.42 588.90 732.45 592.42
  Q 708.42 597.12 684.18 595.77
  A 0.19 0.18 34.6 0 1 684.11 595.42
  Q 685.63 594.77 686.69 594.64
  Q 705.63 592.30 717.30 589.45
  Q 727.29 587.01 731.87 585.37
  Q 736.50 583.71 737.92 583.14" data-index="0"></path>
<path stroke="#ef8080" vector-effect="non-scaling-stroke" d="
  M 577.88 583.88
  A 0.19 0.19 0.0 0 1 577.82 583.53
  Q 582.78 580.68 585.32 575.47
  A 0.35 0.35 0.0 0 0 584.90 574.99
  C 575.03 578.33 564.36 578.11 554.50 577.77
  C 544.84 577.43 537.00 580.44 534.99 590.96
  A 0.41 0.41 0.0 0 0 535.61 591.38
  C 539.53 588.85 544.69 586.91 549.24 588.54
  A 2.06 1.83 25.4 0 1 550.43 591.34
  Q 549.58 592.67 547.49 592.77
  Q 534.82 593.37 533.00 593.56
  C 525.76 594.31 518.28 595.86 520.58 605.25
  A 0.46 0.46 0.0 0 0 521.32 605.49
  C 527.17 600.64 534.93 602.39 540.89 606.08
  Q 556.11 615.53 560.12 633.03
  A 0.46 0.45 46.8 0 0 561.00 633.06
  Q 568.37 608.47 589.67 594.06
  C 593.73 591.32 597.09 589.09 601.17 587.12
  A 0.73 0.73 0.0 0 0 600.86 585.73
  Q 590.05 585.69 577.88 583.88" data-index="1"></path>
<path stroke="#ef8080" vector-effect="non-scaling-stroke" d="
  M 290.98 714.39
  A 0.18 0.18 0.0 0 1 290.85 714.09
  L 329.83 675.12
  A 0.96 0.96 0.0 0 1 331.20 675.13
  Q 362.88 707.82 380.17 725.83
  C 382.65 728.42 384.62 729.86 388.01 729.94
  Q 393.48 730.07 443.26 730.07
  Q 444.84 730.07 445.73 729.69
  C 447.55 728.90 446.97 726.45 446.01 725.48
  Q 411.46 690.47 364.96 643.16
  C 363.32 641.50 361.48 640.17 359.24 640.06
  Q 354.15 639.81 349.84 640.03
  C 347.10 640.18 345.37 641.26 343.45 643.20
  Q 324.16 662.73 299.63 687.06
  Q 297.64 689.03 297.22 689.81
  Q 296.81 690.58 294.30 692.37
  A 1.46 1.46 0.0 0 0 293.85 692.90
  Q 293.60 693.40 293.38 693.63
  Q 277.51 709.41 261.12 725.94
  C 259.20 727.87 260.91 730.10 263.53 730.10
  Q 322.26 729.97 350.01 730.15
  Q 352.91 730.17 353.50 727.75
  Q 354.10 725.29 353.63 717.30
  Q 353.46 714.46 350.71 714.44
  Q 313.78 714.20 290.98 714.39" data-index="2"></path>
<path stroke="#ef8080" vector-effect="non-scaling-stroke" d="
  M 571.08 730.09
  C 573.24 730.09 574.28 728.72 574.40 726.46
  Q 574.60 722.56 574.46 718.58
  C 574.36 715.97 573.68 714.30 570.85 714.32
  Q 552.15 714.52 517.26 714.28
  C 504.75 714.20 503.49 703.46 503.51 693.50
  Q 503.53 682.38 503.51 643.98
  Q 503.51 639.93 499.29 639.94
  Q 479.22 640.00 452.22 639.95
  C 448.52 639.94 445.94 639.49 445.92 643.99
  Q 445.82 673.41 446.00 694.49
  C 446.10 706.77 451.31 718.44 461.93 724.61
  C 470.06 729.32 478.28 730.00 488.60 730.03
  Q 508.10 730.07 571.08 730.09" data-index="3"></path>
<path stroke="#ef8080" vector-effect="non-scaling-stroke" d="
  M 847.74 689.01
  A 0.48 0.47 -26.5 0 1 848.01 688.21
  C 858.85 686.63 869.55 680.12 872.13 669.09
  C 876.51 650.38 860.97 639.98 844.25 639.97
  Q 788.15 639.94 733.63 639.97
  C 729.28 639.97 725.91 639.17 725.92 644.24
  Q 725.96 660.47 725.93 726.24
  Q 725.93 729.98 729.05 730.00
  Q 744.11 730.05 771.25 730.07
  C 775.49 730.07 778.41 730.66 778.40 725.65
  Q 778.38 700.52 778.40 655.94
  A 0.48 0.48 0.0 0 1 778.88 655.46
  Q 798.26 655.41 809.48 655.61
  C 815.51 655.72 820.90 658.58 820.13 665.60
  C 819.35 672.64 811.35 673.36 805.50 673.25
  Q 803.96 673.22 791.86 673.25
  C 786.04 673.27 786.13 674.77 786.23 680.06
  Q 786.29 683.34 789.17 686.32
  Q 810.98 708.79 825.17 723.25
  C 829.58 727.75 831.52 729.95 838.87 729.99
  Q 863.70 730.11 882.43 730.06
  C 884.81 730.06 884.93 727.17 883.54 725.74
  Q 861.75 703.32 847.74 689.01" data-index="4"></path>
<path stroke="#ef8080" vector-effect="non-scaling-stroke" d="
  M 946.36 730.03
  Q 966.21 730.03 970.25 730.03
  Q 972.55 730.03 972.54 727.52
  Q 972.48 681.36 972.56 655.91
  A 0.42 0.42 0.0 0 1 972.98 655.49
  L 1011.87 655.49
  A 1.77 1.76 -0.0 0 0 1013.64 653.73
  L 1013.64 641.69
  A 1.68 1.68 0.0 0 0 1011.97 640.02
  Q 1005.06 639.97 946.36 639.97
  Q 887.66 639.96 880.74 640.02
  A 1.68 1.68 0.0 0 0 879.08 641.69
  L 879.08 653.73
  A 1.77 1.76 0.0 0 0 880.85 655.49
  L 919.74 655.49
  A 0.42 0.42 0.0 0 1 920.16 655.91
  Q 920.23 681.36 920.17 727.52
  Q 920.16 730.03 922.46 730.03
  Q 926.50 730.03 946.36 730.03" data-index="5"></path>
<path stroke="#ef8080" vector-effect="non-scaling-stroke" d="
  M 712.90 675.87
  A 2.89 2.89 0.0 0 0 710.01 672.98
  L 645.69 672.98
  A 2.89 2.89 0.0 0 0 642.80 675.87
  L 642.80 685.57
  A 2.89 2.89 0.0 0 0 645.69 688.46
  L 710.01 688.46
  A 2.89 2.89 0.0 0 0 712.90 685.57
  L 712.90 675.87" data-index="6"></path>
<path stroke="#808080" vector-effect="non-scaling-stroke" d="
  M 383.82 786.18
  A 0.26 0.26 0.0 0 0 383.56 786.45
  C 384.05 802.13 410.26 803.01 412.09 788.24
  C 413.31 778.38 403.85 776.33 395.90 773.38
  Q 393.37 772.43 392.61 770.32
  C 390.32 763.96 401.50 761.80 403.13 769.21
  A 0.36 0.35 -6.0 0 0 403.48 769.49
  L 410.92 769.49
  A 0.25 0.24 -2.1 0 0 411.17 769.23
  C 410.39 754.36 384.95 754.33 384.38 768.93
  C 383.99 779.07 393.90 779.21 400.62 782.62
  C 406.24 785.47 404.84 792.38 398.46 792.30
  Q 392.34 792.21 391.48 786.46
  A 0.34 0.33 84.9 0 0 391.15 786.18
  L 383.82 786.18" data-index="7"></path>
<path stroke="#808080" vector-effect="non-scaling-stroke" d="
  M 522.55 778.25
  C 522.42 791.34 530.87 799.87 544.29 798.48
  Q 555.86 797.29 558.81 785.87
  A 0.24 0.24 0.0 0 0 558.58 785.57
  L 550.77 785.57
  A 0.39 0.39 0.0 0 0 550.40 785.83
  Q 548.20 792.29 540.76 791.85
  C 533.06 791.40 530.21 785.26 530.28 778.33
  C 530.35 771.40 533.32 765.31 541.03 765.01
  Q 548.48 764.72 550.55 771.23
  A 0.39 0.39 0.0 0 0 550.91 771.49
  L 558.72 771.65
  A 0.24 0.24 0.0 0 0 558.95 771.36
  Q 556.23 759.88 544.69 758.45
  C 531.30 756.80 522.68 765.16 522.55 778.25" data-index="8"></path>
<path stroke="#808080" vector-effect="non-scaling-stroke" d="
  M 454.82 778.32
  Q 454.84 796.12 454.87 797.26
  A 0.66 0.66 0.0 0 0 455.53 797.90
  L 480.17 797.90
  A 0.48 0.48 0.0 0 0 480.65 797.42
  L 480.65 792.22
  A 0.43 0.43 0.0 0 0 480.22 791.79
  L 462.98 791.79
  A 0.60 0.60 0.0 0 1 462.38 791.19
  L 462.38 781.79
  A 0.56 0.55 -0.0 0 1 462.94 781.24
  L 478.44 781.24
  A 0.49 0.49 0.0 0 0 478.93 780.75
  Q 478.93 780.11 478.93 778.29
  Q 478.93 776.47 478.92 775.82
  A 0.49 0.49 0.0 0 0 478.43 775.34
  L 462.93 775.37
  A 0.56 0.55 -0.1 0 1 462.37 774.82
  L 462.35 765.42
  A 0.60 0.60 0.0 0 1 462.95 764.82
  L 480.19 764.78
  A 0.43 0.43 0.0 0 0 480.62 764.35
  L 480.61 759.15
  A 0.48 0.48 0.0 0 0 480.13 758.67
  L 455.49 758.73
  A 0.66 0.66 0.0 0 0 454.83 759.37
  Q 454.80 760.51 454.82 778.32" data-index="9"></path>
<path stroke="#808080" vector-effect="non-scaling-stroke" d="
  M 617.17 798.65
  C 623.36 798.65 628.55 796.05 631.43 790.55
  Q 632.91 787.71 632.89 780.21
  Q 632.86 767.33 632.91 759.26
  A 0.45 0.45 0.0 0 0 632.46 758.81
  L 625.72 758.81
  A 0.43 0.42 90.0 0 0 625.30 759.24
  Q 625.42 774.53 625.21 783.94
  C 625.09 788.98 622.02 791.70 617.18 791.69
  C 612.34 791.68 609.27 788.96 609.17 783.92
  Q 608.98 774.51 609.14 759.22
  A 0.43 0.42 -89.9 0 0 608.72 758.79
  L 601.98 758.77
  A 0.45 0.45 0.0 0 0 601.53 759.22
  Q 601.56 767.29 601.50 780.17
  Q 601.46 787.67 602.93 790.52
  C 605.80 796.03 610.98 798.64 617.17 798.65" data-index="10"></path>
<path stroke="#808080" vector-effect="non-scaling-stroke" d="
  M 705.65 797.77
  L 698.01 782.30
  A 0.56 0.55 -26.6 0 1 698.26 781.56
  Q 706.56 777.51 705.16 768.48
  C 704.28 762.80 699.36 759.29 693.97 758.96
  Q 689.98 758.72 677.42 758.82
  A 0.60 0.60 0.0 0 0 676.82 759.42
  L 676.82 797.65
  A 0.35 0.35 0.0 0 0 677.17 798.00
  L 684.01 798.00
  A 0.36 0.36 0.0 0 0 684.37 797.64
  L 684.37 783.19
  A 0.52 0.52 0.0 0 1 684.89 782.67
  L 689.13 782.67
  A 1.04 1.03 76.3 0 1 690.05 783.24
  L 697.26 797.85
  A 0.28 0.25 -12.1 0 0 697.50 797.99
  L 705.51 797.99
  A 0.15 0.15 0.0 0 0 705.65 797.77" data-index="11"></path>
<path stroke="#808080" vector-effect="non-scaling-stroke" d="
  M 756.38 759.19
  A 0.39 0.39 0.0 0 0 755.99 758.80
  L 749.21 758.80
  A 0.39 0.39 0.0 0 0 748.82 759.19
  L 748.82 797.61
  A 0.39 0.39 0.0 0 0 749.21 798.00
  L 755.99 798.00
  A 0.39 0.39 0.0 0 0 756.38 797.61
  L 756.38 759.19" data-index="12"></path>
<path stroke="#808080" vector-effect="non-scaling-stroke" d="
  M 812.72 798.00
  Q 815.68 798.00 816.08 797.98
  A 0.45 0.44 -1.5 0 0 816.50 797.54
  L 816.50 765.49
  A 0.59 0.59 0.0 0 1 817.09 764.90
  L 827.48 764.90
  A 0.44 0.43 0.0 0 0 827.92 764.47
  L 827.92 759.26
  A 0.46 0.45 89.8 0 0 827.47 758.80
  Q 820.33 758.80 812.72 758.80
  Q 805.11 758.80 797.97 758.80
  A 0.46 0.45 -89.8 0 0 797.51 759.26
  L 797.51 764.47
  A 0.44 0.43 0.0 0 0 797.95 764.90
  L 808.34 764.90
  A 0.59 0.59 0.0 0 1 808.93 765.49
  L 808.93 797.54
  A 0.45 0.44 1.5 0 0 809.36 797.98
  Q 809.75 798.00 812.72 798.00" data-index="13"></path>
<path stroke="#808080" vector-effect="non-scaling-stroke" d="
  M 883.80 798.00
  Q 886.34 798.00 886.93 797.97
  A 0.67 0.67 0.0 0 0 887.57 797.30
  L 887.57 784.92
  A 3.09 2.98 -32.3 0 1 887.91 783.53
  L 900.63 759.01
  A 0.15 0.14 14.3 0 0 900.50 758.80
  L 892.54 758.80
  A 0.48 0.48 0.0 0 0 892.11 759.07
  L 884.09 775.98
  A 0.34 0.34 0.0 0 1 883.90 776.15
  Q 883.84 776.17 883.77 776.17
  Q 883.71 776.17 883.65 776.15
  A 0.34 0.34 0.0 0 1 883.46 775.98
  L 875.41 759.09
  A 0.48 0.48 0.0 0 0 874.98 758.82
  L 867.02 758.83
  A 0.15 0.14 -14.4 0 0 866.89 759.04
  L 879.65 783.54
  A 3.09 2.98 32.2 0 1 880.00 784.93
  L 880.02 797.31
  A 0.67 0.67 0.0 0 0 880.66 797.98
  Q 881.25 798.00 883.80 798.00" data-index="14"></path>
<path stroke="#808080" vector-effect="non-scaling-stroke" d="
  M 351.54 780.96
  A 0.55 0.55 0.0 0 0 350.99 780.41
  L 260.63 780.41
  A 0.55 0.55 0.0 0 0 260.08 780.96
  L 260.08 782.42
  A 0.55 0.55 0.0 0 0 260.63 782.97
  L 350.99 782.97
  A 0.55 0.55 0.0 0 0 351.54 782.42
  L 351.54 780.96" data-index="15"></path>
<path stroke="#808080" vector-effect="non-scaling-stroke" d="
  M 1013.64 780.91
  A 0.50 0.50 0.0 0 0 1013.14 780.41
  L 922.70 780.41
  A 0.50 0.50 0.0 0 0 922.20 780.91
  L 922.20 782.47
  A 0.50 0.50 0.0 0 0 922.70 782.97
  L 1013.14 782.97
  A 0.50 0.50 0.0 0 0 1013.64 782.47
  L 1013.64 780.91" data-index="16"></path>
<path stroke="#a6a6a6" vector-effect="non-scaling-stroke" d="
  M 479.57 839.75
  A 0.74 0.73 -61.6 0 0 479.84 840.67
  C 483.80 843.19 490.78 844.25 494.72 840.88
  C 498.19 837.92 496.50 833.26 492.22 832.03
  C 488.84 831.07 483.10 830.36 483.05 827.26
  C 482.98 822.26 491.57 823.86 493.83 825.28
  A 0.66 0.66 0.0 0 0 494.78 824.99
  L 495.37 823.67
  A 0.83 0.82 25.9 0 0 495.00 822.61
  C 491.03 820.54 483.30 819.90 480.63 824.50
  C 478.96 827.38 479.95 830.81 483.08 832.22
  Q 485.19 833.18 490.34 834.39
  C 493.90 835.23 494.72 838.79 490.67 839.92
  Q 486.30 841.13 480.85 838.37
  A 0.59 0.57 24.9 0 0 480.06 838.65
  L 479.57 839.75" data-index="17"></path>
<path stroke="#a6a6a6" vector-effect="non-scaling-stroke" d="
  M 542.09 840.22
  L 529.93 840.23
  A 0.39 0.38 -90.0 0 1 529.55 839.84
  L 529.56 833.44
  A 0.43 0.43 0.0 0 1 529.99 833.01
  L 540.24 832.98
  A 0.56 0.56 0.0 0 0 540.80 832.40
  L 540.74 830.76
  A 0.49 0.48 -0.6 0 0 540.25 830.29
  L 529.93 830.30
  A 0.38 0.38 0.0 0 1 529.55 829.92
  L 529.55 824.13
  A 0.35 0.35 0.0 0 1 529.91 823.78
  L 541.64 823.80
  A 0.52 0.52 0.0 0 0 542.16 823.29
  L 542.18 821.65
  A 0.62 0.62 0.0 0 0 541.56 821.02
  L 527.02 821.00
  A 0.65 0.65 0.0 0 0 526.37 821.65
  L 526.37 842.52
  A 0.46 0.45 0.0 0 0 526.83 842.97
  L 542.03 842.99
  A 0.61 0.61 0.0 0 0 542.65 842.36
  L 542.60 840.72
  A 0.52 0.51 88.8 0 0 542.09 840.22" data-index="18"></path>
<path stroke="#a6a6a6" vector-effect="non-scaling-stroke" d="
  M 591.43 842.42
  L 586.90 835.92
  A 0.63 0.63 0.0 0 1 587.02 835.07
  C 587.84 834.41 588.83 834.16 589.73 833.08
  C 593.92 828.04 590.08 821.68 584.03 821.18
  Q 580.38 820.88 573.97 821.05
  A 0.61 0.61 0.0 0 0 573.37 821.66
  L 573.37 842.48
  A 0.50 0.50 0.0 0 0 573.87 842.98
  L 576.04 842.98
  A 0.51 0.50 -0.0 0 0 576.55 842.48
  L 576.55 836.55
  A 0.56 0.56 0.0 0 1 577.11 835.99
  L 582.87 835.99
  A 1.21 1.20 72.3 0 1 583.85 836.50
  L 587.91 842.33
  A 1.55 1.54 -17.3 0 0 589.18 842.99
  L 591.13 842.99
  A 0.36 0.36 0.0 0 0 591.43 842.42" data-index="19"></path>
<path stroke="#a6a6a6" vector-effect="non-scaling-stroke" d="
  M 630.43 843.01
  Q 631.55 843.01 631.61 843.00
  A 1.16 1.13 1.8 0 0 632.29 842.37
  L 641.64 821.53
  A 0.37 0.36 -78.2 0 0 641.31 821.02
  L 639.06 821.02
  A 0.84 0.83 -78.0 0 0 638.30 821.52
  Q 634.58 829.86 630.79 838.30
  Q 630.62 838.66 630.43 838.66
  Q 630.24 838.66 630.08 838.30
  Q 626.29 829.85 622.58 821.51
  A 0.84 0.83 78.1 0 0 621.82 821.01
  L 619.57 821.01
  A 0.37 0.36 78.3 0 0 619.24 821.52
  L 628.57 842.37
  A 1.16 1.13 -1.7 0 0 629.25 842.99
  Q 629.31 843.01 630.43 843.01" data-index="20"></path>
<path stroke="#a6a6a6" vector-effect="non-scaling-stroke" d="
  M 673.56 821.59
  A 0.57 0.57 0.0 0 0 672.99 821.02
  L 670.95 821.02
  A 0.57 0.57 0.0 0 0 670.38 821.59
  L 670.38 842.41
  A 0.57 0.57 0.0 0 0 670.95 842.98
  L 672.99 842.98
  A 0.57 0.57 0.0 0 0 673.56 842.41
  L 673.56 821.59" data-index="21"></path>
<path stroke="#a6a6a6" vector-effect="non-scaling-stroke" d="
  M 703.58 832.01
  C 703.59 842.05 716.66 846.62 723.52 839.84
  A 0.43 0.43 0.0 0 0 723.52 839.24
  L 722.24 837.96
  A 0.52 0.51 -40.4 0 0 721.57 837.91
  Q 715.55 842.34 709.74 838.17
  Q 706.77 836.05 706.77 832.01
  Q 706.77 827.98 709.73 825.84
  Q 715.54 821.67 721.56 826.09
  A 0.52 0.51 40.3 0 0 722.23 826.04
  L 723.51 824.76
  A 0.43 0.43 0.0 0 0 723.51 824.16
  C 716.65 817.39 703.58 821.97 703.58 832.01" data-index="22"></path>
<path stroke="#a6a6a6" vector-effect="non-scaling-stroke" d="
  M 770.16 842.98
  A 0.46 0.46 0.0 0 0 770.62 842.52
  L 770.62 840.69
  A 0.46 0.46 0.0 0 0 770.16 840.23
  L 758.01 840.23
  A 0.46 0.46 0.0 0 1 757.55 839.77
  L 757.55 833.45
  A 0.46 0.46 0.0 0 1 758.01 832.99
  L 768.31 832.99
  A 0.46 0.46 0.0 0 0 768.77 832.53
  L 768.77 830.75
  A 0.46 0.46 0.0 0 0 768.31 830.29
  L 758.01 830.29
  A 0.46 0.46 0.0 0 1 757.55 829.83
  L 757.55 824.25
  A 0.46 0.46 0.0 0 1 758.01 823.79
  L 769.70 823.79
  A 0.46 0.46 0.0 0 0 770.16 823.33
  L 770.16 821.48
  A 0.46 0.46 0.0 0 0 769.70 821.02
  L 754.83 821.02
  A 0.46 0.46 0.0 0 0 754.37 821.48
  L 754.37 842.52
  A 0.46 0.46 0.0 0 0 754.83 842.98
  L 770.16 842.98" data-index="23"></path>
<path stroke="#a6a6a6" vector-effect="non-scaling-stroke" d="
  M 799.57 839.74
  A 0.74 0.73 -61.6 0 0 799.84 840.66
  C 803.80 843.18 810.77 844.25 814.71 840.88
  C 818.18 837.92 816.50 833.26 812.22 832.03
  C 808.84 831.07 803.10 830.36 803.05 827.26
  C 802.99 822.26 811.57 823.86 813.83 825.28
  A 0.66 0.66 0.0 0 0 814.78 825.00
  L 815.37 823.68
  A 0.82 0.82 0.0 0 0 815.00 822.62
  C 811.03 820.55 803.31 819.90 800.64 824.50
  C 798.97 827.38 799.95 830.81 803.08 832.22
  Q 805.19 833.18 810.34 834.39
  C 813.90 835.23 814.71 838.79 810.66 839.92
  Q 806.30 841.12 800.85 838.36
  A 0.59 0.57 24.9 0 0 800.06 838.64
  L 799.57 839.74" data-index="24"></path>
<path stroke="#808080" vector-effect="non-scaling-stroke" d="
  M 684.35 765.50
  L 684.41 776.82
  A 0.35 0.35 0.0 0 0 684.76 777.17
  L 691.90 777.14
  A 5.81 5.56 -0.3 0 0 697.68 771.55
  L 697.68 770.65
  A 5.81 5.56 -0.3 0 0 691.84 765.12
  L 684.70 765.15
  A 0.35 0.35 0.0 0 0 684.35 765.50" data-index="25"></path>
<path stroke="#a6a6a6" vector-effect="non-scaling-stroke" d="
  M 576.55 824.15
  L 576.55 832.93
  A 0.34 0.34 0.0 0 0 576.89 833.27
  L 582.53 833.27
  A 5.66 4.52 0.0 0 0 588.19 828.75
  L 588.19 828.33
  A 5.66 4.52 -0.0 0 0 582.53 823.81
  L 576.89 823.81
  A 0.34 0.34 0.0 0 0 576.55 824.15" data-index="26"></path>
</g>
<path fill="#ffffff" d="
  M 1275.00 0.00
  L 1275.00 1275.00
  L 0.00 1275.00
  L 0.00 0.00
  L 1275.00 0.00
  Z
  M 737.92 583.14
  C 744.02 580.67 747.13 579.16 752.74 576.20
  C 778.80 562.42 793.70 537.29 793.74 507.86
  A 0.28 0.28 0.0 0 0 793.25 507.67
  C 772.86 530.72 749.84 551.85 721.01 563.62
  Q 714.84 566.15 708.74 568.36
  Q 703.82 570.15 688.98 573.41
  A 0.24 0.23 -18.9 0 1 688.73 573.29
  L 688.61 573.03
  A 0.38 0.38 0.0 0 1 688.82 572.50
  Q 712.94 563.59 733.06 547.56
  C 755.70 529.52 770.60 506.20 769.80 476.61
  A 0.40 0.39 60.2 0 0 769.07 476.41
  Q 763.32 485.68 756.55 493.09
  C 752.53 497.49 750.32 500.31 745.98 504.48
  C 729.40 520.40 710.70 532.71 689.86 544.36
  Q 680.09 549.83 631.33 574.86
  Q 609.80 585.91 594.16 597.66
  C 583.27 605.85 574.16 615.53 568.79 628.18
  C 562.10 643.93 567.54 659.70 574.49 674.68
  A 6.97 6.88 35.7 0 1 575.11 678.34
  C 572.64 702.42 584.80 724.59 609.80 729.27
  C 614.83 730.21 621.45 730.06 626.75 730.05
  Q 639.39 730.05 711.00 730.06
  C 714.52 730.06 714.33 726.92 714.35 723.60
  C 714.37 719.67 715.37 714.35 710.75 714.38
  Q 684.00 714.51 647.82 714.32
  C 633.83 714.24 633.37 698.94 633.36 688.98
  Q 633.35 679.63 633.46 673.00
  C 633.63 662.66 636.34 655.56 648.25 655.50
  Q 671.73 655.38 710.00 655.53
  Q 714.11 655.54 714.04 651.24
  Q 713.90 643.25 713.86 642.92
  C 713.28 638.92 709.18 640.19 706.39 639.81
  A 0.23 0.23 0.0 0 1 706.36 639.36
  Q 716.26 636.25 726.09 630.60
  A 0.30 0.30 0.0 0 0 725.94 630.04
  Q 713.02 630.09 702.25 629.81
  Q 669.56 628.96 638.02 620.85
  A 0.14 0.14 0.0 0 1 638.07 620.57
  Q 659.85 622.11 679.99 622.73
  Q 697.22 623.26 713.68 621.40
  Q 723.82 620.26 734.11 616.66
  Q 758.88 608.00 769.98 584.20
  A 0.48 0.48 0.0 0 0 769.41 583.54
  Q 750.42 588.90 732.45 592.42
  Q 708.42 597.12 684.18 595.77
  A 0.19 0.18 34.6 0 1 684.11 595.42
  Q 685.63 594.77 686.69 594.64
  Q 705.63 592.30 717.30 589.45
  Q 727.29 587.01 731.87 585.37
  Q 736.50 583.71 737.92 583.14
  Z
  M 577.88 583.88
  A 0.19 0.19 0.0 0 1 577.82 583.53
  Q 582.78 580.68 585.32 575.47
  A 0.35 0.35 0.0 0 0 584.90 574.99
  C 575.03 578.33 564.36 578.11 554.50 577.77
  C 544.84 577.43 537.00 580.44 534.99 590.96
  A 0.41 0.41 0.0 0 0 535.61 591.38
  C 539.53 588.85 544.69 586.91 549.24 588.54
  A 2.06 1.83 25.4 0 1 550.43 591.34
  Q 549.58 592.67 547.49 592.77
  Q 534.82 593.37 533.00 593.56
  C 525.76 594.31 518.28 595.86 520.58 605.25
  A 0.46 0.46 0.0 0 0 521.32 605.49
  C 527.17 600.64 534.93 602.39 540.89 606.08
  Q 556.11 615.53 560.12 633.03
  A 0.46 0.45 46.8 0 0 561.00 633.06
  Q 568.37 608.47 589.67 594.06
  C 593.73 591.32 597.09 589.09 601.17 587.12
  A 0.73 0.73 0.0 0 0 600.86 585.73
  Q 590.05 585.69 577.88 583.88
  Z
  M 290.98 714.39
  A 0.18 0.18 0.0 0 1 290.85 714.09
  L 329.83 675.12
  A 0.96 0.96 0.0 0 1 331.20 675.13
  Q 362.88 707.82 380.17 725.83
  C 382.65 728.42 384.62 729.86 388.01 729.94
  Q 393.48 730.07 443.26 730.07
  Q 444.84 730.07 445.73 729.69
  C 447.55 728.90 446.97 726.45 446.01 725.48
  Q 411.46 690.47 364.96 643.16
  C 363.32 641.50 361.48 640.17 359.24 640.06
  Q 354.15 639.81 349.84 640.03
  C 347.10 640.18 345.37 641.26 343.45 643.20
  Q 324.16 662.73 299.63 687.06
  Q 297.64 689.03 297.22 689.81
  Q 296.81 690.58 294.30 692.37
  A 1.46 1.46 0.0 0 0 293.85 692.90
  Q 293.60 693.40 293.38 693.63
  Q 277.51 709.41 261.12 725.94
  C 259.20 727.87 260.91 730.10 263.53 730.10
  Q 322.26 729.97 350.01 730.15
  Q 352.91 730.17 353.50 727.75
  Q 354.10 725.29 353.63 717.30
  Q 353.46 714.46 350.71 714.44
  Q 313.78 714.20 290.98 714.39
  Z
  M 571.08 730.09
  C 573.24 730.09 574.28 728.72 574.40 726.46
  Q 574.60 722.56 574.46 718.58
  C 574.36 715.97 573.68 714.30 570.85 714.32
  Q 552.15 714.52 517.26 714.28
  C 504.75 714.20 503.49 703.46 503.51 693.50
  Q 503.53 682.38 503.51 643.98
  Q 503.51 639.93 499.29 639.94
  Q 479.22 640.00 452.22 639.95
  C 448.52 639.94 445.94 639.49 445.92 643.99
  Q 445.82 673.41 446.00 694.49
  C 446.10 706.77 451.31 718.44 461.93 724.61
  C 470.06 729.32 478.28 730.00 488.60 730.03
  Q 508.10 730.07 571.08 730.09
  Z
  M 847.74 689.01
  A 0.48 0.47 -26.5 0 1 848.01 688.21
  C 858.85 686.63 869.55 680.12 872.13 669.09
  C 876.51 650.38 860.97 639.98 844.25 639.97
  Q 788.15 639.94 733.63 639.97
  C 729.28 639.97 725.91 639.17 725.92 644.24
  Q 725.96 660.47 725.93 726.24
  Q 725.93 729.98 729.05 730.00
  Q 744.11 730.05 771.25 730.07
  C 775.49 730.07 778.41 730.66 778.40 725.65
  Q 778.38 700.52 778.40 655.94
  A 0.48 0.48 0.0 0 1 778.88 655.46
  Q 798.26 655.41 809.48 655.61
  C 815.51 655.72 820.90 658.58 820.13 665.60
  C 819.35 672.64 811.35 673.36 805.50 673.25
  Q 803.96 673.22 791.86 673.25
  C 786.04 673.27 786.13 674.77 786.23 680.06
  Q 786.29 683.34 789.17 686.32
  Q 810.98 708.79 825.17 723.25
  C 829.58 727.75 831.52 729.95 838.87 729.99
  Q 863.70 730.11 882.43 730.06
  C 884.81 730.06 884.93 727.17 883.54 725.74
  Q 861.75 703.32 847.74 689.01
  Z
  M 946.36 730.03
  Q 966.21 730.03 970.25 730.03
  Q 972.55 730.03 972.54 727.52
  Q 972.48 681.36 972.56 655.91
  A 0.42 0.42 0.0 0 1 972.98 655.49
  L 1011.87 655.49
  A 1.77 1.76 -0.0 0 0 1013.64 653.73
  L 1013.64 641.69
  A 1.68 1.68 0.0 0 0 1011.97 640.02
  Q 1005.06 639.97 946.36 639.97
  Q 887.66 639.96 880.74 640.02
  A 1.68 1.68 0.0 0 0 879.08 641.69
  L 879.08 653.73
  A 1.77 1.76 0.0 0 0 880.85 655.49
  L 919.74 655.49
  A 0.42 0.42 0.0 0 1 920.16 655.91
  Q 920.23 681.36 920.17 727.52
  Q 920.16 730.03 922.46 730.03
  Q 926.50 730.03 946.36 730.03
  Z
  M 712.90 675.87
  A 2.89 2.89 0.0 0 0 710.01 672.98
  L 645.69 672.98
  A 2.89 2.89 0.0 0 0 642.80 675.87
  L 642.80 685.57
  A 2.89 2.89 0.0 0 0 645.69 688.46
  L 710.01 688.46
  A 2.89 2.89 0.0 0 0 712.90 685.57
  L 712.90 675.87
  Z
  M 383.82 786.18
  A 0.26 0.26 0.0 0 0 383.56 786.45
  C 384.05 802.13 410.26 803.01 412.09 788.24
  C 413.31 778.38 403.85 776.33 395.90 773.38
  Q 393.37 772.43 392.61 770.32
  C 390.32 763.96 401.50 761.80 403.13 769.21
  A 0.36 0.35 -6.0 0 0 403.48 769.49
  L 410.92 769.49
  A 0.25 0.24 -2.1 0 0 411.17 769.23
  C 410.39 754.36 384.95 754.33 384.38 768.93
  C 383.99 779.07 393.90 779.21 400.62 782.62
  C 406.24 785.47 404.84 792.38 398.46 792.30
  Q 392.34 792.21 391.48 786.46
  A 0.34 0.33 84.9 0 0 391.15 786.18
  L 383.82 786.18
  Z
  M 522.55 778.25
  C 522.42 791.34 530.87 799.87 544.29 798.48
  Q 555.86 797.29 558.81 785.87
  A 0.24 0.24 0.0 0 0 558.58 785.57
  L 550.77 785.57
  A 0.39 0.39 0.0 0 0 550.40 785.83
  Q 548.20 792.29 540.76 791.85
  C 533.06 791.40 530.21 785.26 530.28 778.33
  C 530.35 771.40 533.32 765.31 541.03 765.01
  Q 548.48 764.72 550.55 771.23
  A 0.39 0.39 0.0 0 0 550.91 771.49
  L 558.72 771.65
  A 0.24 0.24 0.0 0 0 558.95 771.36
  Q 556.23 759.88 544.69 758.45
  C 531.30 756.80 522.68 765.16 522.55 778.25
  Z
  M 454.82 778.32
  Q 454.84 796.12 454.87 797.26
  A 0.66 0.66 0.0 0 0 455.53 797.90
  L 480.17 797.90
  A 0.48 0.48 0.0 0 0 480.65 797.42
  L 480.65 792.22
  A 0.43 0.43 0.0 0 0 480.22 791.79
  L 462.98 791.79
  A 0.60 0.60 0.0 0 1 462.38 791.19
  L 462.38 781.79
  A 0.56 0.55 -0.0 0 1 462.94 781.24
  L 478.44 781.24
  A 0.49 0.49 0.0 0 0 478.93 780.75
  Q 478.93 780.11 478.93 778.29
  Q 478.93 776.47 478.92 775.82
  A 0.49 0.49 0.0 0 0 478.43 775.34
  L 462.93 775.37
  A 0.56 0.55 -0.1 0 1 462.37 774.82
  L 462.35 765.42
  A 0.60 0.60 0.0 0 1 462.95 764.82
  L 480.19 764.78
  A 0.43 0.43 0.0 0 0 480.62 764.35
  L 480.61 759.15
  A 0.48 0.48 0.0 0 0 480.13 758.67
  L 455.49 758.73
  A 0.66 0.66 0.0 0 0 454.83 759.37
  Q 454.80 760.51 454.82 778.32
  Z
  M 617.17 798.65
  C 623.36 798.65 628.55 796.05 631.43 790.55
  Q 632.91 787.71 632.89 780.21
  Q 632.86 767.33 632.91 759.26
  A 0.45 0.45 0.0 0 0 632.46 758.81
  L 625.72 758.81
  A 0.43 0.42 90.0 0 0 625.30 759.24
  Q 625.42 774.53 625.21 783.94
  C 625.09 788.98 622.02 791.70 617.18 791.69
  C 612.34 791.68 609.27 788.96 609.17 783.92
  Q 608.98 774.51 609.14 759.22
  A 0.43 0.42 -89.9 0 0 608.72 758.79
  L 601.98 758.77
  A 0.45 0.45 0.0 0 0 601.53 759.22
  Q 601.56 767.29 601.50 780.17
  Q 601.46 787.67 602.93 790.52
  C 605.80 796.03 610.98 798.64 617.17 798.65
  Z
  M 705.65 797.77
  L 698.01 782.30
  A 0.56 0.55 -26.6 0 1 698.26 781.56
  Q 706.56 777.51 705.16 768.48
  C 704.28 762.80 699.36 759.29 693.97 758.96
  Q 689.98 758.72 677.42 758.82
  A 0.60 0.60 0.0 0 0 676.82 759.42
  L 676.82 797.65
  A 0.35 0.35 0.0 0 0 677.17 798.00
  L 684.01 798.00
  A 0.36 0.36 0.0 0 0 684.37 797.64
  L 684.37 783.19
  A 0.52 0.52 0.0 0 1 684.89 782.67
  L 689.13 782.67
  A 1.04 1.03 76.3 0 1 690.05 783.24
  L 697.26 797.85
  A 0.28 0.25 -12.1 0 0 697.50 797.99
  L 705.51 797.99
  A 0.15 0.15 0.0 0 0 705.65 797.77
  Z
  M 756.38 759.19
  A 0.39 0.39 0.0 0 0 755.99 758.80
  L 749.21 758.80
  A 0.39 0.39 0.0 0 0 748.82 759.19
  L 748.82 797.61
  A 0.39 0.39 0.0 0 0 749.21 798.00
  L 755.99 798.00
  A 0.39 0.39 0.0 0 0 756.38 797.61
  L 756.38 759.19
  Z
  M 812.72 798.00
  Q 815.68 798.00 816.08 797.98
  A 0.45 0.44 -1.5 0 0 816.50 797.54
  L 816.50 765.49
  A 0.59 0.59 0.0 0 1 817.09 764.90
  L 827.48 764.90
  A 0.44 0.43 0.0 0 0 827.92 764.47
  L 827.92 759.26
  A 0.46 0.45 89.8 0 0 827.47 758.80
  Q 820.33 758.80 812.72 758.80
  Q 805.11 758.80 797.97 758.80
  A 0.46 0.45 -89.8 0 0 797.51 759.26
  L 797.51 764.47
  A 0.44 0.43 0.0 0 0 797.95 764.90
  L 808.34 764.90
  A 0.59 0.59 0.0 0 1 808.93 765.49
  L 808.93 797.54
  A 0.45 0.44 1.5 0 0 809.36 797.98
  Q 809.75 798.00 812.72 798.00
  Z
  M 883.80 798.00
  Q 886.34 798.00 886.93 797.97
  A 0.67 0.67 0.0 0 0 887.57 797.30
  L 887.57 784.92
  A 3.09 2.98 -32.3 0 1 887.91 783.53
  L 900.63 759.01
  A 0.15 0.14 14.3 0 0 900.50 758.80
  L 892.54 758.80
  A 0.48 0.48 0.0 0 0 892.11 759.07
  L 884.09 775.98
  A 0.34 0.34 0.0 0 1 883.90 776.15
  Q 883.84 776.17 883.77 776.17
  Q 883.71 776.17 883.65 776.15
  A 0.34 0.34 0.0 0 1 883.46 775.98
  L 875.41 759.09
  A 0.48 0.48 0.0 0 0 874.98 758.82
  L 867.02 758.83
  A 0.15 0.14 -14.4 0 0 866.89 759.04
  L 879.65 783.54
  A 3.09 2.98 32.2 0 1 880.00 784.93
  L 880.02 797.31
  A 0.67 0.67 0.0 0 0 880.66 797.98
  Q 881.25 798.00 883.80 798.00
  Z
  M 351.54 780.96
  A 0.55 0.55 0.0 0 0 350.99 780.41
  L 260.63 780.41
  A 0.55 0.55 0.0 0 0 260.08 780.96
  L 260.08 782.42
  A 0.55 0.55 0.0 0 0 260.63 782.97
  L 350.99 782.97
  A 0.55 0.55 0.0 0 0 351.54 782.42
  L 351.54 780.96
  Z
  M 1013.64 780.91
  A 0.50 0.50 0.0 0 0 1013.14 780.41
  L 922.70 780.41
  A 0.50 0.50 0.0 0 0 922.20 780.91
  L 922.20 782.47
  A 0.50 0.50 0.0 0 0 922.70 782.97
  L 1013.14 782.97
  A 0.50 0.50 0.0 0 0 1013.64 782.47
  L 1013.64 780.91
  Z
  M 479.57 839.75
  A 0.74 0.73 -61.6 0 0 479.84 840.67
  C 483.80 843.19 490.78 844.25 494.72 840.88
  C 498.19 837.92 496.50 833.26 492.22 832.03
  C 488.84 831.07 483.10 830.36 483.05 827.26
  C 482.98 822.26 491.57 823.86 493.83 825.28
  A 0.66 0.66 0.0 0 0 494.78 824.99
  L 495.37 823.67
  A 0.83 0.82 25.9 0 0 495.00 822.61
  C 491.03 820.54 483.30 819.90 480.63 824.50
  C 478.96 827.38 479.95 830.81 483.08 832.22
  Q 485.19 833.18 490.34 834.39
  C 493.90 835.23 494.72 838.79 490.67 839.92
  Q 486.30 841.13 480.85 838.37
  A 0.59 0.57 24.9 0 0 480.06 838.65
  L 479.57 839.75
  Z
  M 542.09 840.22
  L 529.93 840.23
  A 0.39 0.38 -90.0 0 1 529.55 839.84
  L 529.56 833.44
  A 0.43 0.43 0.0 0 1 529.99 833.01
  L 540.24 832.98
  A 0.56 0.56 0.0 0 0 540.80 832.40
  L 540.74 830.76
  A 0.49 0.48 -0.6 0 0 540.25 830.29
  L 529.93 830.30
  A 0.38 0.38 0.0 0 1 529.55 829.92
  L 529.55 824.13
  A 0.35 0.35 0.0 0 1 529.91 823.78
  L 541.64 823.80
  A 0.52 0.52 0.0 0 0 542.16 823.29
  L 542.18 821.65
  A 0.62 0.62 0.0 0 0 541.56 821.02
  L 527.02 821.00
  A 0.65 0.65 0.0 0 0 526.37 821.65
  L 526.37 842.52
  A 0.46 0.45 0.0 0 0 526.83 842.97
  L 542.03 842.99
  A 0.61 0.61 0.0 0 0 542.65 842.36
  L 542.60 840.72
  A 0.52 0.51 88.8 0 0 542.09 840.22
  Z
  M 591.43 842.42
  L 586.90 835.92
  A 0.63 0.63 0.0 0 1 587.02 835.07
  C 587.84 834.41 588.83 834.16 589.73 833.08
  C 593.92 828.04 590.08 821.68 584.03 821.18
  Q 580.38 820.88 573.97 821.05
  A 0.61 0.61 0.0 0 0 573.37 821.66
  L 573.37 842.48
  A 0.50 0.50 0.0 0 0 573.87 842.98
  L 576.04 842.98
  A 0.51 0.50 -0.0 0 0 576.55 842.48
  L 576.55 836.55
  A 0.56 0.56 0.0 0 1 577.11 835.99
  L 582.87 835.99
  A 1.21 1.20 72.3 0 1 583.85 836.50
  L 587.91 842.33
  A 1.55 1.54 -17.3 0 0 589.18 842.99
  L 591.13 842.99
  A 0.36 0.36 0.0 0 0 591.43 842.42
  Z
  M 630.43 843.01
  Q 631.55 843.01 631.61 843.00
  A 1.16 1.13 1.8 0 0 632.29 842.37
  L 641.64 821.53
  A 0.37 0.36 -78.2 0 0 641.31 821.02
  L 639.06 821.02
  A 0.84 0.83 -78.0 0 0 638.30 821.52
  Q 634.58 829.86 630.79 838.30
  Q 630.62 838.66 630.43 838.66
  Q 630.24 838.66 630.08 838.30
  Q 626.29 829.85 622.58 821.51
  A 0.84 0.83 78.1 0 0 621.82 821.01
  L 619.57 821.01
  A 0.37 0.36 78.3 0 0 619.24 821.52
  L 628.57 842.37
  A 1.16 1.13 -1.7 0 0 629.25 842.99
  Q 629.31 843.01 630.43 843.01
  Z
  M 673.56 821.59
  A 0.57 0.57 0.0 0 0 672.99 821.02
  L 670.95 821.02
  A 0.57 0.57 0.0 0 0 670.38 821.59
  L 670.38 842.41
  A 0.57 0.57 0.0 0 0 670.95 842.98
  L 672.99 842.98
  A 0.57 0.57 0.0 0 0 673.56 842.41
  L 673.56 821.59
  Z
  M 703.58 832.01
  C 703.59 842.05 716.66 846.62 723.52 839.84
  A 0.43 0.43 0.0 0 0 723.52 839.24
  L 722.24 837.96
  A 0.52 0.51 -40.4 0 0 721.57 837.91
  Q 715.55 842.34 709.74 838.17
  Q 706.77 836.05 706.77 832.01
  Q 706.77 827.98 709.73 825.84
  Q 715.54 821.67 721.56 826.09
  A 0.52 0.51 40.3 0 0 722.23 826.04
  L 723.51 824.76
  A 0.43 0.43 0.0 0 0 723.51 824.16
  C 716.65 817.39 703.58 821.97 703.58 832.01
  Z
  M 770.16 842.98
  A 0.46 0.46 0.0 0 0 770.62 842.52
  L 770.62 840.69
  A 0.46 0.46 0.0 0 0 770.16 840.23
  L 758.01 840.23
  A 0.46 0.46 0.0 0 1 757.55 839.77
  L 757.55 833.45
  A 0.46 0.46 0.0 0 1 758.01 832.99
  L 768.31 832.99
  A 0.46 0.46 0.0 0 0 768.77 832.53
  L 768.77 830.75
  A 0.46 0.46 0.0 0 0 768.31 830.29
  L 758.01 830.29
  A 0.46 0.46 0.0 0 1 757.55 829.83
  L 757.55 824.25
  A 0.46 0.46 0.0 0 1 758.01 823.79
  L 769.70 823.79
  A 0.46 0.46 0.0 0 0 770.16 823.33
  L 770.16 821.48
  A 0.46 0.46 0.0 0 0 769.70 821.02
  L 754.83 821.02
  A 0.46 0.46 0.0 0 0 754.37 821.48
  L 754.37 842.52
  A 0.46 0.46 0.0 0 0 754.83 842.98
  L 770.16 842.98
  Z
  M 799.57 839.74
  A 0.74 0.73 -61.6 0 0 799.84 840.66
  C 803.80 843.18 810.77 844.25 814.71 840.88
  C 818.18 837.92 816.50 833.26 812.22 832.03
  C 808.84 831.07 803.10 830.36 803.05 827.26
  C 802.99 822.26 811.57 823.86 813.83 825.28
  A 0.66 0.66 0.0 0 0 814.78 825.00
  L 815.37 823.68
  A 0.82 0.82 0.0 0 0 815.00 822.62
  C 811.03 820.55 803.31 819.90 800.64 824.50
  C 798.97 827.38 799.95 830.81 803.08 832.22
  Q 805.19 833.18 810.34 834.39
  C 813.90 835.23 814.71 838.79 810.66 839.92
  Q 806.30 841.12 800.85 838.36
  A 0.59 0.57 24.9 0 0 800.06 838.64
  L 799.57 839.74
  Z" data-index="27" style="opacity: 1;"></path>
<path fill="#df0100" d="
  M 737.92 583.14
  Q 736.50 583.71 731.87 585.37
  Q 727.29 587.01 717.30 589.45
  Q 705.63 592.30 686.69 594.64
  Q 685.63 594.77 684.11 595.42
  A 0.19 0.18 34.6 0 0 684.18 595.77
  Q 708.42 597.12 732.45 592.42
  Q 750.42 588.90 769.41 583.54
  A 0.48 0.48 0.0 0 1 769.98 584.20
  Q 758.88 608.00 734.11 616.66
  Q 723.82 620.26 713.68 621.40
  Q 697.22 623.26 679.99 622.73
  Q 659.85 622.11 638.07 620.57
  A 0.14 0.14 0.0 0 0 638.02 620.85
  Q 669.56 628.96 702.25 629.81
  Q 713.02 630.09 725.94 630.04
  A 0.30 0.30 0.0 0 1 726.09 630.60
  Q 716.26 636.25 706.36 639.36
  A 0.23 0.23 0.0 0 0 706.39 639.81
  C 709.18 640.19 713.28 638.92 713.86 642.92
  Q 713.90 643.25 714.04 651.24
  Q 714.11 655.54 710.00 655.53
  Q 671.73 655.38 648.25 655.50
  C 636.34 655.56 633.63 662.66 633.46 673.00
  Q 633.35 679.63 633.36 688.98
  C 633.37 698.94 633.83 714.24 647.82 714.32
  Q 684.00 714.51 710.75 714.38
  C 715.37 714.35 714.37 719.67 714.35 723.60
  C 714.33 726.92 714.52 730.06 711.00 730.06
  Q 639.39 730.05 626.75 730.05
  C 621.45 730.06 614.83 730.21 609.80 729.27
  C 584.80 724.59 572.64 702.42 575.11 678.34
  A 6.97 6.88 35.7 0 0 574.49 674.68
  C 567.54 659.70 562.10 643.93 568.79 628.18
  C 574.16 615.53 583.27 605.85 594.16 597.66
  Q 609.80 585.91 631.33 574.86
  Q 680.09 549.83 689.86 544.36
  C 710.70 532.71 729.40 520.40 745.98 504.48
  C 750.32 500.31 752.53 497.49 756.55 493.09
  Q 763.32 485.68 769.07 476.41
  A 0.40 0.39 60.2 0 1 769.80 476.61
  C 770.60 506.20 755.70 529.52 733.06 547.56
  Q 712.94 563.59 688.82 572.50
  A 0.38 0.38 0.0 0 0 688.61 573.03
  L 688.73 573.29
  A 0.24 0.23 -18.9 0 0 688.98 573.41
  Q 703.82 570.15 708.74 568.36
  Q 714.84 566.15 721.01 563.62
  C 749.84 551.85 772.86 530.72 793.25 507.67
  A 0.28 0.28 0.0 0 1 793.74 507.86
  C 793.70 537.29 778.80 562.42 752.74 576.20
  C 747.13 579.16 744.02 580.67 737.92 583.14
  Z" data-index="28"></path>
<path fill="#df0100" d="
  M 577.88 583.88
  Q 590.05 585.69 600.86 585.73
  A 0.73 0.73 0.0 0 1 601.17 587.12
  C 597.09 589.09 593.73 591.32 589.67 594.06
  Q 568.37 608.47 561.00 633.06
  A 0.46 0.45 46.8 0 1 560.12 633.03
  Q 556.11 615.53 540.89 606.08
  C 534.93 602.39 527.17 600.64 521.32 605.49
  A 0.46 0.46 0.0 0 1 520.58 605.25
  C 518.28 595.86 525.76 594.31 533.00 593.56
  Q 534.82 593.37 547.49 592.77
  Q 549.58 592.67 550.43 591.34
  A 2.06 1.83 25.4 0 0 549.24 588.54
  C 544.69 586.91 539.53 588.85 535.61 591.38
  A 0.41 0.41 0.0 0 1 534.99 590.96
  C 537.00 580.44 544.84 577.43 554.50 577.77
  C 564.36 578.11 575.03 578.33 584.90 574.99
  A 0.35 0.35 0.0 0 1 585.32 575.47
  Q 582.78 580.68 577.82 583.53
  A 0.19 0.19 0.0 0 0 577.88 583.88
  Z" data-index="29"></path>
<path fill="#df0100" d="
  M 290.98 714.39
  Q 313.78 714.20 350.71 714.44
  Q 353.46 714.46 353.63 717.30
  Q 354.10 725.29 353.50 727.75
  Q 352.91 730.17 350.01 730.15
  Q 322.26 729.97 263.53 730.10
  C 260.91 730.10 259.20 727.87 261.12 725.94
  Q 277.51 709.41 293.38 693.63
  Q 293.60 693.40 293.85 692.90
  A 1.46 1.46 0.0 0 1 294.30 692.37
  Q 296.81 690.58 297.22 689.81
  Q 297.64 689.03 299.63 687.06
  Q 324.16 662.73 343.45 643.20
  C 345.37 641.26 347.10 640.18 349.84 640.03
  Q 354.15 639.81 359.24 640.06
  C 361.48 640.17 363.32 641.50 364.96 643.16
  Q 411.46 690.47 446.01 725.48
  C 446.97 726.45 447.55 728.90 445.73 729.69
  Q 444.84 730.07 443.26 730.07
  Q 393.48 730.07 388.01 729.94
  C 384.62 729.86 382.65 728.42 380.17 725.83
  Q 362.88 707.82 331.20 675.13
  A 0.96 0.96 0.0 0 0 329.83 675.12
  L 290.85 714.09
  A 0.18 0.18 0.0 0 0 290.98 714.39
  Z" data-index="30"></path>
<path fill="#df0100" d="
  M 574.40 726.46
  C 574.28 728.72 573.24 730.09 571.08 730.09
  Q 508.10 730.07 488.60 730.03
  C 478.28 730.00 470.06 729.32 461.93 724.61
  C 451.31 718.44 446.10 706.77 446.00 694.49
  Q 445.82 673.41 445.92 643.99
  C 445.94 639.49 448.52 639.94 452.22 639.95
  Q 479.22 640.00 499.29 639.94
  Q 503.51 639.93 503.51 643.98
  Q 503.53 682.38 503.51 693.50
  C 503.49 703.46 504.75 714.20 517.26 714.28
  Q 552.15 714.52 570.85 714.32
  C 573.68 714.30 574.36 715.97 574.46 718.58
  Q 574.60 722.56 574.40 726.46
  Z" data-index="31"></path>
<path fill="#df0100" d="
  M 847.74 689.01
  Q 861.75 703.32 883.54 725.74
  C 884.93 727.17 884.81 730.06 882.43 730.06
  Q 863.70 730.11 838.87 729.99
  C 831.52 729.95 829.58 727.75 825.17 723.25
  Q 810.98 708.79 789.17 686.32
  Q 786.29 683.34 786.23 680.06
  C 786.13 674.77 786.04 673.27 791.86 673.25
  Q 803.96 673.22 805.50 673.25
  C 811.35 673.36 819.35 672.64 820.13 665.60
  C 820.90 658.58 815.51 655.72 809.48 655.61
  Q 798.26 655.41 778.88 655.46
  A 0.48 0.48 0.0 0 0 778.40 655.94
  Q 778.38 700.52 778.40 725.65
  C 778.41 730.66 775.49 730.07 771.25 730.07
  Q 744.11 730.05 729.05 730.00
  Q 725.93 729.98 725.93 726.24
  Q 725.96 660.47 725.92 644.24
  C 725.91 639.17 729.28 639.97 733.63 639.97
  Q 788.15 639.94 844.25 639.97
  C 860.97 639.98 876.51 650.38 872.13 669.09
  C 869.55 680.12 858.85 686.63 848.01 688.21
  A 0.48 0.47 -26.5 0 0 847.74 689.01
  Z" data-index="32" style="opacity: 1;"></path>
<path fill="#df0100" d="
  M 946.36 639.97
  Q 1005.06 639.97 1011.97 640.02
  A 1.68 1.68 0.0 0 1 1013.64 641.69
  L 1013.64 653.73
  A 1.77 1.76 0.0 0 1 1011.87 655.49
  L 972.98 655.49
  A 0.42 0.42 0.0 0 0 972.56 655.91
  Q 972.48 681.36 972.54 727.52
  Q 972.55 730.03 970.25 730.03
  Q 966.21 730.03 946.36 730.03
  Q 926.50 730.03 922.46 730.03
  Q 920.16 730.03 920.17 727.52
  Q 920.23 681.36 920.16 655.91
  A 0.42 0.42 0.0 0 0 919.74 655.49
  L 880.85 655.49
  A 1.77 1.76 0.0 0 1 879.08 653.73
  L 879.08 641.69
  A 1.68 1.68 0.0 0 1 880.74 640.02
  Q 887.66 639.96 946.36 639.97
  Z" data-index="33"></path>
<rect fill="#df0100" x="642.80" y="672.98" width="70.10" height="15.48" rx="2.89"></rect>
<path fill="#000000" d="
  M 391.48 786.46
  Q 392.34 792.21 398.46 792.30
  C 404.84 792.38 406.24 785.47 400.62 782.62
  C 393.90 779.21 383.99 779.07 384.38 768.93
  C 384.95 754.33 410.39 754.36 411.17 769.23
  A 0.25 0.24 -2.1 0 1 410.92 769.49
  L 403.48 769.49
  A 0.36 0.35 -6.0 0 1 403.13 769.21
  C 401.50 761.80 390.32 763.96 392.61 770.32
  Q 393.37 772.43 395.90 773.38
  C 403.85 776.33 413.31 778.38 412.09 788.24
  C 410.26 803.01 384.05 802.13 383.56 786.45
  A 0.26 0.26 0.0 0 1 383.82 786.18
  L 391.15 786.18
  A 0.34 0.33 84.9 0 1 391.48 786.46
  Z" data-index="34"></path>
<path fill="#000000" d="
  M 530.28 778.33
  C 530.21 785.26 533.06 791.40 540.76 791.85
  Q 548.20 792.29 550.40 785.83
  A 0.39 0.39 0.0 0 1 550.77 785.57
  L 558.58 785.57
  A 0.24 0.24 0.0 0 1 558.81 785.87
  Q 555.86 797.29 544.29 798.48
  C 530.87 799.87 522.42 791.34 522.55 778.25
  C 522.68 765.16 531.30 756.80 544.69 758.45
  Q 556.23 759.88 558.95 771.36
  A 0.24 0.24 0.0 0 1 558.72 771.65
  L 550.91 771.49
  A 0.39 0.39 0.0 0 1 550.55 771.23
  Q 548.48 764.72 541.03 765.01
  C 533.32 765.31 530.35 771.40 530.28 778.33
  Z" data-index="35"></path>
<path fill="#000000" d="
  M 478.93 778.29
  Q 478.93 780.11 478.93 780.75
  A 0.49 0.49 0.0 0 1 478.44 781.24
  L 462.94 781.24
  A 0.56 0.55 -0.0 0 0 462.38 781.79
  L 462.38 791.19
  A 0.60 0.60 0.0 0 0 462.98 791.79
  L 480.22 791.79
  A 0.43 0.43 0.0 0 1 480.65 792.22
  L 480.65 797.42
  A 0.48 0.48 0.0 0 1 480.17 797.90
  L 455.53 797.90
  A 0.66 0.66 0.0 0 1 454.87 797.26
  Q 454.84 796.12 454.82 778.32
  Q 454.80 760.51 454.83 759.37
  A 0.66 0.66 0.0 0 1 455.49 758.73
  L 480.13 758.67
  A 0.48 0.48 0.0 0 1 480.61 759.15
  L 480.62 764.35
  A 0.43 0.43 0.0 0 1 480.19 764.78
  L 462.95 764.82
  A 0.60 0.60 0.0 0 0 462.35 765.42
  L 462.37 774.82
  A 0.56 0.55 -0.1 0 0 462.93 775.37
  L 478.43 775.34
  A 0.49 0.49 0.0 0 1 478.92 775.82
  Q 478.93 776.47 478.93 778.29
  Z" data-index="36"></path>
<path fill="#000000" d="
  M 617.18 791.69
  C 622.02 791.70 625.09 788.98 625.21 783.94
  Q 625.42 774.53 625.30 759.24
  A 0.43 0.42 90.0 0 1 625.72 758.81
  L 632.46 758.81
  A 0.45 0.45 0.0 0 1 632.91 759.26
  Q 632.86 767.33 632.89 780.21
  Q 632.91 787.71 631.43 790.55
  C 628.55 796.05 623.36 798.65 617.17 798.65
  C 610.98 798.64 605.80 796.03 602.93 790.52
  Q 601.46 787.67 601.50 780.17
  Q 601.56 767.29 601.53 759.22
  A 0.45 0.45 0.0 0 1 601.98 758.77
  L 608.72 758.79
  A 0.43 0.42 -89.9 0 1 609.14 759.22
  Q 608.98 774.51 609.17 783.92
  C 609.27 788.96 612.34 791.68 617.18 791.69
  Z" data-index="37"></path>
<path fill="#000000" d="
  M 705.65 797.77
  A 0.15 0.15 0.0 0 1 705.51 797.99
  L 697.50 797.99
  A 0.28 0.25 -12.1 0 1 697.26 797.85
  L 690.05 783.24
  A 1.04 1.03 76.3 0 0 689.13 782.67
  L 684.89 782.67
  A 0.52 0.52 0.0 0 0 684.37 783.19
  L 684.37 797.64
  A 0.36 0.36 0.0 0 1 684.01 798.00
  L 677.17 798.00
  A 0.35 0.35 0.0 0 1 676.82 797.65
  L 676.82 759.42
  A 0.60 0.60 0.0 0 1 677.42 758.82
  Q 689.98 758.72 693.97 758.96
  C 699.36 759.29 704.28 762.80 705.16 768.48
  Q 706.56 777.51 698.26 781.56
  A 0.56 0.55 -26.6 0 0 698.01 782.30
  L 705.65 797.77
  Z
  M 684.35 765.50
  L 684.41 776.82
  A 0.35 0.35 0.0 0 0 684.76 777.17
  L 691.90 777.14
  A 5.81 5.56 -0.3 0 0 697.68 771.55
  L 697.68 770.65
  A 5.81 5.56 -0.3 0 0 691.84 765.12
  L 684.70 765.15
  A 0.35 0.35 0.0 0 0 684.35 765.50
  Z" data-index="38"></path>
<rect fill="#000000" x="748.82" y="758.80" width="7.56" height="39.20" rx="0.39"></rect>
<path fill="#000000" d="
  M 812.72 758.80
  Q 820.33 758.80 827.47 758.80
  A 0.46 0.45 89.8 0 1 827.92 759.26
  L 827.92 764.47
  A 0.44 0.43 -0.0 0 1 827.48 764.90
  L 817.09 764.90
  A 0.59 0.59 0.0 0 0 816.50 765.49
  L 816.50 797.54
  A 0.45 0.44 -1.5 0 1 816.08 797.98
  Q 815.68 798.00 812.72 798.00
  Q 809.75 798.00 809.36 797.98
  A 0.45 0.44 1.5 0 1 808.93 797.54
  L 808.93 765.49
  A 0.59 0.59 0.0 0 0 808.34 764.90
  L 797.95 764.90
  A 0.44 0.43 0.0 0 1 797.51 764.47
  L 797.51 759.26
  A 0.46 0.45 -89.8 0 1 797.97 758.80
  Q 805.11 758.80 812.72 758.80
  Z" data-index="39"></path>
<path fill="#000000" d="
  M 883.77 776.17
  Q 883.84 776.17 883.90 776.15
  A 0.34 0.34 0.0 0 0 884.09 775.98
  L 892.11 759.07
  A 0.48 0.48 0.0 0 1 892.54 758.80
  L 900.50 758.80
  A 0.15 0.14 14.3 0 1 900.63 759.01
  L 887.91 783.53
  A 3.09 2.98 -32.3 0 0 887.57 784.92
  L 887.57 797.30
  A 0.67 0.67 0.0 0 1 886.93 797.97
  Q 886.34 798.00 883.80 798.00
  Q 881.25 798.00 880.66 797.98
  A 0.67 0.67 0.0 0 1 880.02 797.31
  L 880.00 784.93
  A 3.09 2.98 32.2 0 0 879.65 783.54
  L 866.89 759.04
  A 0.15 0.14 -14.4 0 1 867.02 758.83
  L 874.98 758.82
  A 0.48 0.48 0.0 0 1 875.41 759.09
  L 883.46 775.98
  A 0.34 0.34 0.0 0 0 883.65 776.15
  Q 883.71 776.17 883.77 776.17
  Z" data-index="40" style="opacity: 1;"></path>
<path fill="#ffffff" d="
  M 684.35 765.50
  A 0.35 0.35 0.0 0 1 684.70 765.15
  L 691.84 765.12
  A 5.81 5.56 -0.3 0 1 697.68 770.65
  L 697.68 771.55
  A 5.81 5.56 -0.3 0 1 691.90 777.14
  L 684.76 777.17
  A 0.35 0.35 0.0 0 1 684.41 776.82
  L 684.35 765.50
  Z" data-index="41"></path>
<rect fill="#000000" x="260.08" y="780.41" width="91.46" height="2.56" rx="0.55"></rect>
<rect fill="#000000" x="922.20" y="780.41" width="91.44" height="2.56" rx="0.50"></rect>
<path fill="#4d4d4d" d="
  M 479.57 839.75
  L 480.06 838.65
  A 0.59 0.57 24.9 0 1 480.85 838.37
  Q 486.30 841.13 490.67 839.92
  C 494.72 838.79 493.90 835.23 490.34 834.39
  Q 485.19 833.18 483.08 832.22
  C 479.95 830.81 478.96 827.38 480.63 824.50
  C 483.30 819.90 491.03 820.54 495.00 822.61
  A 0.83 0.82 25.9 0 1 495.37 823.67
  L 494.78 824.99
  A 0.66 0.66 0.0 0 1 493.83 825.28
  C 491.57 823.86 482.98 822.26 483.05 827.26
  C 483.10 830.36 488.84 831.07 492.22 832.03
  C 496.50 833.26 498.19 837.92 494.72 840.88
  C 490.78 844.25 483.80 843.19 479.84 840.67
  A 0.74 0.73 -61.6 0 1 479.57 839.75
  Z" data-index="42"></path>
<path fill="#4d4d4d" d="
  M 542.09 840.22
  A 0.52 0.51 88.8 0 1 542.60 840.72
  L 542.65 842.36
  A 0.61 0.61 0.0 0 1 542.03 842.99
  L 526.83 842.97
  A 0.46 0.45 0.0 0 1 526.37 842.52
  L 526.37 821.65
  A 0.65 0.65 0.0 0 1 527.02 821.00
  L 541.56 821.02
  A 0.62 0.62 0.0 0 1 542.18 821.65
  L 542.16 823.29
  A 0.52 0.52 0.0 0 1 541.64 823.80
  L 529.91 823.78
  A 0.35 0.35 0.0 0 0 529.55 824.13
  L 529.55 829.92
  A 0.38 0.38 0.0 0 0 529.93 830.30
  L 540.25 830.29
  A 0.49 0.48 -0.6 0 1 540.74 830.76
  L 540.80 832.40
  A 0.56 0.56 0.0 0 1 540.24 832.98
  L 529.99 833.01
  A 0.43 0.43 0.0 0 0 529.56 833.44
  L 529.55 839.84
  A 0.39 0.38 -90.0 0 0 529.93 840.23
  L 542.09 840.22
  Z" data-index="43"></path>
<path fill="#4d4d4d" d="
  M 591.43 842.42
  A 0.36 0.36 0.0 0 1 591.13 842.99
  L 589.18 842.99
  A 1.55 1.54 -17.3 0 1 587.91 842.33
  L 583.85 836.50
  A 1.21 1.20 72.3 0 0 582.87 835.99
  L 577.11 835.99
  A 0.56 0.56 0.0 0 0 576.55 836.55
  L 576.55 842.48
  A 0.51 0.50 -0.0 0 1 576.04 842.98
  L 573.87 842.98
  A 0.50 0.50 0.0 0 1 573.37 842.48
  L 573.37 821.66
  A 0.61 0.61 0.0 0 1 573.97 821.05
  Q 580.38 820.88 584.03 821.18
  C 590.08 821.68 593.92 828.04 589.73 833.08
  C 588.83 834.16 587.84 834.41 587.02 835.07
  A 0.63 0.63 0.0 0 0 586.90 835.92
  L 591.43 842.42
  Z
  M 576.55 824.15
  L 576.55 832.93
  A 0.34 0.34 0.0 0 0 576.89 833.27
  L 582.53 833.27
  A 5.66 4.52 0.0 0 0 588.19 828.75
  L 588.19 828.33
  A 5.66 4.52 -0.0 0 0 582.53 823.81
  L 576.89 823.81
  A 0.34 0.34 0.0 0 0 576.55 824.15
  Z" data-index="44"></path>
<path fill="#4d4d4d" d="
  M 630.43 838.66
  Q 630.62 838.66 630.79 838.30
  Q 634.58 829.86 638.30 821.52
  A 0.84 0.83 -78.0 0 1 639.06 821.02
  L 641.31 821.02
  A 0.37 0.36 -78.2 0 1 641.64 821.53
  L 632.29 842.37
  A 1.16 1.13 1.8 0 1 631.61 843.00
  Q 631.55 843.01 630.43 843.01
  Q 629.31 843.01 629.25 842.99
  A 1.16 1.13 -1.7 0 1 628.57 842.37
  L 619.24 821.52
  A 0.37 0.36 78.3 0 1 619.57 821.01
  L 621.82 821.01
  A 0.84 0.83 78.1 0 1 622.58 821.51
  Q 626.29 829.85 630.08 838.30
  Q 630.24 838.66 630.43 838.66
  Z" data-index="45"></path>
<rect fill="#4d4d4d" x="670.38" y="821.02" width="3.18" height="21.96" rx="0.57"></rect>
<path fill="#4d4d4d" d="
  M 706.77 832.01
  Q 706.77 836.05 709.74 838.17
  Q 715.55 842.34 721.57 837.91
  A 0.52 0.51 -40.4 0 1 722.24 837.96
  L 723.52 839.24
  A 0.43 0.43 0.0 0 1 723.52 839.84
  C 716.66 846.62 703.59 842.05 703.58 832.01
  C 703.58 821.97 716.65 817.39 723.51 824.16
  A 0.43 0.43 0.0 0 1 723.51 824.76
  L 722.23 826.04
  A 0.52 0.51 40.3 0 1 721.56 826.09
  Q 715.54 821.67 709.73 825.84
  Q 706.77 827.98 706.77 832.01
  Z" data-index="46"></path>
<path fill="#4d4d4d" d="
  M 770.16 842.98
  L 754.83 842.98
  A 0.46 0.46 0.0 0 1 754.37 842.52
  L 754.37 821.48
  A 0.46 0.46 0.0 0 1 754.83 821.02
  L 769.70 821.02
  A 0.46 0.46 0.0 0 1 770.16 821.48
  L 770.16 823.33
  A 0.46 0.46 0.0 0 1 769.70 823.79
  L 758.01 823.79
  A 0.46 0.46 0.0 0 0 757.55 824.25
  L 757.55 829.83
  A 0.46 0.46 0.0 0 0 758.01 830.29
  L 768.31 830.29
  A 0.46 0.46 0.0 0 1 768.77 830.75
  L 768.77 832.53
  A 0.46 0.46 0.0 0 1 768.31 832.99
  L 758.01 832.99
  A 0.46 0.46 0.0 0 0 757.55 833.45
  L 757.55 839.77
  A 0.46 0.46 0.0 0 0 758.01 840.23
  L 770.16 840.23
  A 0.46 0.46 0.0 0 1 770.62 840.69
  L 770.62 842.52
  A 0.46 0.46 0.0 0 1 770.16 842.98
  Z" data-index="47"></path>
<path fill="#4d4d4d" d="
  M 799.57 839.74
  L 800.06 838.64
  A 0.59 0.57 24.9 0 1 800.85 838.36
  Q 806.30 841.12 810.66 839.92
  C 814.71 838.79 813.90 835.23 810.34 834.39
  Q 805.19 833.18 803.08 832.22
  C 799.95 830.81 798.97 827.38 800.64 824.50
  C 803.31 819.90 811.03 820.55 815.00 822.62
  A 0.82 0.82 0.0 0 1 815.37 823.68
  L 814.78 825.00
  A 0.66 0.66 0.0 0 1 813.83 825.28
  C 811.57 823.86 802.99 822.26 803.05 827.26
  C 803.10 830.36 808.84 831.07 812.22 832.03
  C 816.50 833.26 818.18 837.92 814.71 840.88
  C 810.77 844.25 803.80 843.18 799.84 840.66
  A 0.74 0.73 -61.6 0 1 799.57 839.74
  Z" data-index="48"></path>
<path fill="#ffffff" d="
  M 576.55 824.15
  A 0.34 0.34 0.0 0 1 576.89 823.81
  L 582.53 823.81
  A 5.66 4.52 -0.0 0 1 588.19 828.33
  L 588.19 828.75
  A 5.66 4.52 0.0 0 1 582.53 833.27
  L 576.89 833.27
  A 0.34 0.34 0.0 0 1 576.55 832.93
  L 576.55 824.15
  Z" data-index="49"></path>
</svg>