<svg viewBox="239.7 459 800.7 410.55" version="1.1" xmlns="http://www.w3.org/2000/svg" style="max-height: 500px" width="800.7" height="410.55">
<g stroke-linecap="butt" fill="none" stroke-width="2.00">
<path data-index="0" d="M 737.92 583.14&#10;  C 744.02 580.67 747.13 579.16 752.74 576.20&#10;  C 778.80 562.42 793.70 537.29 793.74 507.86&#10;  A 0.28 0.28 0.0 0 0 793.25 507.67&#10;  C 772.86 530.72 749.84 551.85 721.01 563.62&#10;  Q 714.84 566.15 708.74 568.36&#10;  Q 703.82 570.15 688.98 573.41&#10;  A 0.24 0.23 -18.9 0 1 688.73 573.29&#10;  L 688.61 573.03&#10;  A 0.38 0.38 0.0 0 1 688.82 572.50&#10;  Q 712.94 563.59 733.06 547.56&#10;  C 755.70 529.52 770.60 506.20 769.80 476.61&#10;  A 0.40 0.39 60.2 0 0 769.07 476.41&#10;  Q 763.32 485.68 756.55 493.09&#10;  C 752.53 497.49 750.32 500.31 745.98 504.48&#10;  C 729.40 520.40 710.70 532.71 689.86 544.36&#10;  Q 680.09 549.83 631.33 574.86&#10;  Q 609.80 585.91 594.16 597.66&#10;  C 583.27 605.85 574.16 615.53 568.79 628.18&#10;  C 562.10 643.93 567.54 659.70 574.49 674.68&#10;  A 6.97 6.88 35.7 0 1 575.11 678.34&#10;  C 572.64 702.42 584.80 724.59 609.80 729.27&#10;  C 614.83 730.21 621.45 730.06 626.75 730.05&#10;  Q 639.39 730.05 711.00 730.06&#10;  C 714.52 730.06 714.33 726.92 714.35 723.60&#10;  C 714.37 719.67 715.37 714.35 710.75 714.38&#10;  Q 684.00 714.51 647.82 714.32&#10;  C 633.83 714.24 633.37 698.94 633.36 688.98&#10;  Q 633.35 679.63 633.46 673.00&#10;  C 633.63 662.66 636.34 655.56 648.25 655.50&#10;  Q 671.73 655.38 710.00 655.53&#10;  Q 714.11 655.54 714.04 651.24&#10;  Q 713.90 643.25 713.86 642.92&#10;  C 713.28 638.92 709.18 640.19 706.39 639.81&#10;  A 0.23 0.23 0.0 0 1 706.36 639.36&#10;  Q 716.26 636.25 726.09 630.60&#10;  A 0.30 0.30 0.0 0 0 725.94 630.04&#10;  Q 713.02 630.09 702.25 629.81&#10;  Q 669.56 628.96 638.02 620.85&#10;  A 0.14 0.14 0.0 0 1 638.07 620.57&#10;  Q 659.85 622.11 679.99 622.73&#10;  Q 697.22 623.26 713.68 621.40&#10;  Q 723.82 620.26 734.11 616.66&#10;  Q 758.88 608.00 769.98 584.20&#10;  A 0.48 0.48 0.0 0 0 769.41 583.54&#10;  Q 750.42 588.90 732.45 592.42&#10;  Q 708.42 597.12 684.18 595.77&#10;  A 0.19 0.18 34.6 0 1 684.11 595.42&#10;  Q 685.63 594.77 686.69 594.64&#10;  Q 705.63 592.30 717.30 589.45&#10;  Q 727.29 587.01 731.87 585.37&#10;  Q 736.50 583.71 737.92 583.14" stroke="#ef8080"/>
<path data-index="1" d="M 577.88 583.88&#10;  A 0.19 0.19 0.0 0 1 577.82 583.53&#10;  Q 582.78 580.68 585.32 575.47&#10;  A 0.35 0.35 0.0 0 0 584.90 574.99&#10;  C 575.03 578.33 564.36 578.11 554.50 577.77&#10;  C 544.84 577.43 537.00 580.44 534.99 590.96&#10;  A 0.41 0.41 0.0 0 0 535.61 591.38&#10;  C 539.53 588.85 544.69 586.91 549.24 588.54&#10;  A 2.06 1.83 25.4 0 1 550.43 591.34&#10;  Q 549.58 592.67 547.49 592.77&#10;  Q 534.82 593.37 533.00 593.56&#10;  C 525.76 594.31 518.28 595.86 520.58 605.25&#10;  A 0.46 0.46 0.0 0 0 521.32 605.49&#10;  C 527.17 600.64 534.93 602.39 540.89 606.08&#10;  Q 556.11 615.53 560.12 633.03&#10;  A 0.46 0.45 46.8 0 0 561.00 633.06&#10;  Q 568.37 608.47 589.67 594.06&#10;  C 593.73 591.32 597.09 589.09 601.17 587.12&#10;  A 0.73 0.73 0.0 0 0 600.86 585.73&#10;  Q 590.05 585.69 577.88 583.88" stroke="#ef8080"/>
<path data-index="2" d="M 290.98 714.39&#10;  A 0.18 0.18 0.0 0 1 290.85 714.09&#10;  L 329.83 675.12&#10;  A 0.96 0.96 0.0 0 1 331.20 675.13&#10;  Q 362.88 707.82 380.17 725.83&#10;  C 382.65 728.42 384.62 729.86 388.01 729.94&#10;  Q 393.48 730.07 443.26 730.07&#10;  Q 444.84 730.07 445.73 729.69&#10;  C 447.55 728.90 446.97 726.45 446.01 725.48&#10;  Q 411.46 690.47 364.96 643.16&#10;  C 363.32 641.50 361.48 640.17 359.24 640.06&#10;  Q 354.15 639.81 349.84 640.03&#10;  C 347.10 640.18 345.37 641.26 343.45 643.20&#10;  Q 324.16 662.73 299.63 687.06&#10;  Q 297.64 689.03 297.22 689.81&#10;  Q 296.81 690.58 294.30 692.37&#10;  A 1.46 1.46 0.0 0 0 293.85 692.90&#10;  Q 293.60 693.40 293.38 693.63&#10;  Q 277.51 709.41 261.12 725.94&#10;  C 259.20 727.87 260.91 730.10 263.53 730.10&#10;  Q 322.26 729.97 350.01 730.15&#10;  Q 352.91 730.17 353.50 727.75&#10;  Q 354.10 725.29 353.63 717.30&#10;  Q 353.46 714.46 350.71 714.44&#10;  Q 313.78 714.20 290.98 714.39" stroke="#ef8080"/>
<path data-index="3" d="M 571.08 730.09&#10;  C 573.24 730.09 574.28 728.72 574.40 726.46&#10;  Q 574.60 722.56 574.46 718.58&#10;  C 574.36 715.97 573.68 714.30 570.85 714.32&#10;  Q 552.15 714.52 517.26 714.28&#10;  C 504.75 714.20 503.49 703.46 503.51 693.50&#10;  Q 503.53 682.38 503.51 643.98&#10;  Q 503.51 639.93 499.29 639.94&#10;  Q 479.22 640.00 452.22 639.95&#10;  C 448.52 639.94 445.94 639.49 445.92 643.99&#10;  Q 445.82 673.41 446.00 694.49&#10;  C 446.10 706.77 451.31 718.44 461.93 724.61&#10;  C 470.06 729.32 478.28 730.00 488.60 730.03&#10;  Q 508.10 730.07 571.08 730.09" stroke="#ef8080"/>
<path data-index="4" d="M 847.74 689.01&#10;  A 0.48 0.47 -26.5 0 1 848.01 688.21&#10;  C 858.85 686.63 869.55 680.12 872.13 669.09&#10;  C 876.51 650.38 860.97 639.98 844.25 639.97&#10;  Q 788.15 639.94 733.63 639.97&#10;  C 729.28 639.97 725.91 639.17 725.92 644.24&#10;  Q 725.96 660.47 725.93 726.24&#10;  Q 725.93 729.98 729.05 730.00&#10;  Q 744.11 730.05 771.25 730.07&#10;  C 775.49 730.07 778.41 730.66 778.40 725.65&#10;  Q 778.38 700.52 778.40 655.94&#10;  A 0.48 0.48 0.0 0 1 778.88 655.46&#10;  Q 798.26 655.41 809.48 655.61&#10;  C 815.51 655.72 820.90 658.58 820.13 665.60&#10;  C 819.35 672.64 811.35 673.36 805.50 673.25&#10;  Q 803.96 673.22 791.86 673.25&#10;  C 786.04 673.27 786.13 674.77 786.23 680.06&#10;  Q 786.29 683.34 789.17 686.32&#10;  Q 810.98 708.79 825.17 723.25&#10;  C 829.58 727.75 831.52 729.95 838.87 729.99&#10;  Q 863.70 730.11 882.43 730.06&#10;  C 884.81 730.06 884.93 727.17 883.54 725.74&#10;  Q 861.75 703.32 847.74 689.01" stroke="#ef8080"/>
<path data-index="5" d="M 946.36 730.03&#10;  Q 966.21 730.03 970.25 730.03&#10;  Q 972.55 730.03 972.54 727.52&#10;  Q 972.48 681.36 972.56 655.91&#10;  A 0.42 0.42 0.0 0 1 972.98 655.49&#10;  L 1011.87 655.49&#10;  A 1.77 1.76 -0.0 0 0 1013.64 653.73&#10;  L 1013.64 641.69&#10;  A 1.68 1.68 0.0 0 0 1011.97 640.02&#10;  Q 1005.06 639.97 946.36 639.97&#10;  Q 887.66 639.96 880.74 640.02&#10;  A 1.68 1.68 0.0 0 0 879.08 641.69&#10;  L 879.08 653.73&#10;  A 1.77 1.76 0.0 0 0 880.85 655.49&#10;  L 919.74 655.49&#10;  A 0.42 0.42 0.0 0 1 920.16 655.91&#10;  Q 920.23 681.36 920.17 727.52&#10;  Q 920.16 730.03 922.46 730.03&#10;  Q 926.50 730.03 946.36 730.03" stroke="#ef8080"/>
<path data-index="6" d="M 712.90 675.87&#10;  A 2.89 2.89 0.0 0 0 710.01 672.98&#10;  L 645.69 672.98&#10;  A 2.89 2.89 0.0 0 0 642.80 675.87&#10;  L 642.80 685.57&#10;  A 2.89 2.89 0.0 0 0 645.69 688.46&#10;  L 710.01 688.46&#10;  A 2.89 2.89 0.0 0 0 712.90 685.57&#10;  L 712.90 675.87" stroke="#ef8080"/>
<path data-index="7" d="M 383.82 786.18&#10;  A 0.26 0.26 0.0 0 0 383.56 786.45&#10;  C 384.05 802.13 410.26 803.01 412.09 788.24&#10;  C 413.31 778.38 403.85 776.33 395.90 773.38&#10;  Q 393.37 772.43 392.61 770.32&#10;  C 390.32 763.96 401.50 761.80 403.13 769.21&#10;  A 0.36 0.35 -6.0 0 0 403.48 769.49&#10;  L 410.92 769.49&#10;  A 0.25 0.24 -2.1 0 0 411.17 769.23&#10;  C 410.39 754.36 384.95 754.33 384.38 768.93&#10;  C 383.99 779.07 393.90 779.21 400.62 782.62&#10;  C 406.24 785.47 404.84 792.38 398.46 792.30&#10;  Q 392.34 792.21 391.48 786.46&#10;  A 0.34 0.33 84.9 0 0 391.15 786.18&#10;  L 383.82 786.18" stroke="#808080"/>
<path data-index="8" d="M 522.55 778.25&#10;  C 522.42 791.34 530.87 799.87 544.29 798.48&#10;  Q 555.86 797.29 558.81 785.87&#10;  A 0.24 0.24 0.0 0 0 558.58 785.57&#10;  L 550.77 785.57&#10;  A 0.39 0.39 0.0 0 0 550.40 785.83&#10;  Q 548.20 792.29 540.76 791.85&#10;  C 533.06 791.40 530.21 785.26 530.28 778.33&#10;  C 530.35 771.40 533.32 765.31 541.03 765.01&#10;  Q 548.48 764.72 550.55 771.23&#10;  A 0.39 0.39 0.0 0 0 550.91 771.49&#10;  L 558.72 771.65&#10;  A 0.24 0.24 0.0 0 0 558.95 771.36&#10;  Q 556.23 759.88 544.69 758.45&#10;  C 531.30 756.80 522.68 765.16 522.55 778.25" stroke="#808080"/>
<path data-index="9" d="M 454.82 778.32&#10;  Q 454.84 796.12 454.87 797.26&#10;  A 0.66 0.66 0.0 0 0 455.53 797.90&#10;  L 480.17 797.90&#10;  A 0.48 0.48 0.0 0 0 480.65 797.42&#10;  L 480.65 792.22&#10;  A 0.43 0.43 0.0 0 0 480.22 791.79&#10;  L 462.98 791.79&#10;  A 0.60 0.60 0.0 0 1 462.38 791.19&#10;  L 462.38 781.79&#10;  A 0.56 0.55 -0.0 0 1 462.94 781.24&#10;  L 478.44 781.24&#10;  A 0.49 0.49 0.0 0 0 478.93 780.75&#10;  Q 478.93 780.11 478.93 778.29&#10;  Q 478.93 776.47 478.92 775.82&#10;  A 0.49 0.49 0.0 0 0 478.43 775.34&#10;  L 462.93 775.37&#10;  A 0.56 0.55 -0.1 0 1 462.37 774.82&#10;  L 462.35 765.42&#10;  A 0.60 0.60 0.0 0 1 462.95 764.82&#10;  L 480.19 764.78&#10;  A 0.43 0.43 0.0 0 0 480.62 764.35&#10;  L 480.61 759.15&#10;  A 0.48 0.48 0.0 0 0 480.13 758.67&#10;  L 455.49 758.73&#10;  A 0.66 0.66 0.0 0 0 454.83 759.37&#10;  Q 454.80 760.51 454.82 778.32" stroke="#808080"/>
<path data-index="10" d="M 617.17 798.65&#10;  C 623.36 798.65 628.55 796.05 631.43 790.55&#10;  Q 632.91 787.71 632.89 780.21&#10;  Q 632.86 767.33 632.91 759.26&#10;  A 0.45 0.45 0.0 0 0 632.46 758.81&#10;  L 625.72 758.81&#10;  A 0.43 0.42 90.0 0 0 625.30 759.24&#10;  Q 625.42 774.53 625.21 783.94&#10;  C 625.09 788.98 622.02 791.70 617.18 791.69&#10;  C 612.34 791.68 609.27 788.96 609.17 783.92&#10;  Q 608.98 774.51 609.14 759.22&#10;  A 0.43 0.42 -89.9 0 0 608.72 758.79&#10;  L 601.98 758.77&#10;  A 0.45 0.45 0.0 0 0 601.53 759.22&#10;  Q 601.56 767.29 601.50 780.17&#10;  Q 601.46 787.67 602.93 790.52&#10;  C 605.80 796.03 610.98 798.64 617.17 798.65" stroke="#808080"/>
<path data-index="11" d="M 705.65 797.77&#10;  L 698.01 782.30&#10;  A 0.56 0.55 -26.6 0 1 698.26 781.56&#10;  Q 706.56 777.51 705.16 768.48&#10;  C 704.28 762.80 699.36 759.29 693.97 758.96&#10;  Q 689.98 758.72 677.42 758.82&#10;  A 0.60 0.60 0.0 0 0 676.82 759.42&#10;  L 676.82 797.65&#10;  A 0.35 0.35 0.0 0 0 677.17 798.00&#10;  L 684.01 798.00&#10;  A 0.36 0.36 0.0 0 0 684.37 797.64&#10;  L 684.37 783.19&#10;  A 0.52 0.52 0.0 0 1 684.89 782.67&#10;  L 689.13 782.67&#10;  A 1.04 1.03 76.3 0 1 690.05 783.24&#10;  L 697.26 797.85&#10;  A 0.28 0.25 -12.1 0 0 697.50 797.99&#10;  L 705.51 797.99&#10;  A 0.15 0.15 0.0 0 0 705.65 797.77" stroke="#808080"/>
<path data-index="12" d="M 756.38 759.19&#10;  A 0.39 0.39 0.0 0 0 755.99 758.80&#10;  L 749.21 758.80&#10;  A 0.39 0.39 0.0 0 0 748.82 759.19&#10;  L 748.82 797.61&#10;  A 0.39 0.39 0.0 0 0 749.21 798.00&#10;  L 755.99 798.00&#10;  A 0.39 0.39 0.0 0 0 756.38 797.61&#10;  L 756.38 759.19" stroke="#808080"/>
<path data-index="13" d="M 812.72 798.00&#10;  Q 815.68 798.00 816.08 797.98&#10;  A 0.45 0.44 -1.5 0 0 816.50 797.54&#10;  L 816.50 765.49&#10;  A 0.59 0.59 0.0 0 1 817.09 764.90&#10;  L 827.48 764.90&#10;  A 0.44 0.43 0.0 0 0 827.92 764.47&#10;  L 827.92 759.26&#10;  A 0.46 0.45 89.8 0 0 827.47 758.80&#10;  Q 820.33 758.80 812.72 758.80&#10;  Q 805.11 758.80 797.97 758.80&#10;  A 0.46 0.45 -89.8 0 0 797.51 759.26&#10;  L 797.51 764.47&#10;  A 0.44 0.43 0.0 0 0 797.95 764.90&#10;  L 808.34 764.90&#10;  A 0.59 0.59 0.0 0 1 808.93 765.49&#10;  L 808.93 797.54&#10;  A 0.45 0.44 1.5 0 0 809.36 797.98&#10;  Q 809.75 798.00 812.72 798.00" stroke="#808080"/>
<path data-index="14" d="M 883.80 798.00&#10;  Q 886.34 798.00 886.93 797.97&#10;  A 0.67 0.67 0.0 0 0 887.57 797.30&#10;  L 887.57 784.92&#10;  A 3.09 2.98 -32.3 0 1 887.91 783.53&#10;  L 900.63 759.01&#10;  A 0.15 0.14 14.3 0 0 900.50 758.80&#10;  L 892.54 758.80&#10;  A 0.48 0.48 0.0 0 0 892.11 759.07&#10;  L 884.09 775.98&#10;  A 0.34 0.34 0.0 0 1 883.90 776.15&#10;  Q 883.84 776.17 883.77 776.17&#10;  Q 883.71 776.17 883.65 776.15&#10;  A 0.34 0.34 0.0 0 1 883.46 775.98&#10;  L 875.41 759.09&#10;  A 0.48 0.48 0.0 0 0 874.98 758.82&#10;  L 867.02 758.83&#10;  A 0.15 0.14 -14.4 0 0 866.89 759.04&#10;  L 879.65 783.54&#10;  A 3.09 2.98 32.2 0 1 880.00 784.93&#10;  L 880.02 797.31&#10;  A 0.67 0.67 0.0 0 0 880.66 797.98&#10;  Q 881.25 798.00 883.80 798.00" stroke="#808080"/>
<path data-index="15" d="M 351.54 780.96&#10;  A 0.55 0.55 0.0 0 0 350.99 780.41&#10;  L 260.63 780.41&#10;  A 0.55 0.55 0.0 0 0 260.08 780.96&#10;  L 260.08 782.42&#10;  A 0.55 0.55 0.0 0 0 260.63 782.97&#10;  L 350.99 782.97&#10;  A 0.55 0.55 0.0 0 0 351.54 782.42&#10;  L 351.54 780.96" stroke="#808080"/>
<path data-index="16" d="M 1013.64 780.91&#10;  A 0.50 0.50 0.0 0 0 1013.14 780.41&#10;  L 922.70 780.41&#10;  A 0.50 0.50 0.0 0 0 922.20 780.91&#10;  L 922.20 782.47&#10;  A 0.50 0.50 0.0 0 0 922.70 782.97&#10;  L 1013.14 782.97&#10;  A 0.50 0.50 0.0 0 0 1013.64 782.47&#10;  L 1013.64 780.91" stroke="#808080"/>
<path data-index="17" d="M 479.57 839.75&#10;  A 0.74 0.73 -61.6 0 0 479.84 840.67&#10;  C 483.80 843.19 490.78 844.25 494.72 840.88&#10;  C 498.19 837.92 496.50 833.26 492.22 832.03&#10;  C 488.84 831.07 483.10 830.36 483.05 827.26&#10;  C 482.98 822.26 491.57 823.86 493.83 825.28&#10;  A 0.66 0.66 0.0 0 0 494.78 824.99&#10;  L 495.37 823.67&#10;  A 0.83 0.82 25.9 0 0 495.00 822.61&#10;  C 491.03 820.54 483.30 819.90 480.63 824.50&#10;  C 478.96 827.38 479.95 830.81 483.08 832.22&#10;  Q 485.19 833.18 490.34 834.39&#10;  C 493.90 835.23 494.72 838.79 490.67 839.92&#10;  Q 486.30 841.13 480.85 838.37&#10;  A 0.59 0.57 24.9 0 0 480.06 838.65&#10;  L 479.57 839.75" stroke="#a6a6a6"/>
<path data-index="18" d="M 542.09 840.22&#10;  L 529.93 840.23&#10;  A 0.39 0.38 -90.0 0 1 529.55 839.84&#10;  L 529.56 833.44&#10;  A 0.43 0.43 0.0 0 1 529.99 833.01&#10;  L 540.24 832.98&#10;  A 0.56 0.56 0.0 0 0 540.80 832.40&#10;  L 540.74 830.76&#10;  A 0.49 0.48 -0.6 0 0 540.25 830.29&#10;  L 529.93 830.30&#10;  A 0.38 0.38 0.0 0 1 529.55 829.92&#10;  L 529.55 824.13&#10;  A 0.35 0.35 0.0 0 1 529.91 823.78&#10;  L 541.64 823.80&#10;  A 0.52 0.52 0.0 0 0 542.16 823.29&#10;  L 542.18 821.65&#10;  A 0.62 0.62 0.0 0 0 541.56 821.02&#10;  L 527.02 821.00&#10;  A 0.65 0.65 0.0 0 0 526.37 821.65&#10;  L 526.37 842.52&#10;  A 0.46 0.45 0.0 0 0 526.83 842.97&#10;  L 542.03 842.99&#10;  A 0.61 0.61 0.0 0 0 542.65 842.36&#10;  L 542.60 840.72&#10;  A 0.52 0.51 88.8 0 0 542.09 840.22" stroke="#a6a6a6"/>
<path data-index="19" d="M 591.43 842.42&#10;  L 586.90 835.92&#10;  A 0.63 0.63 0.0 0 1 587.02 835.07&#10;  C 587.84 834.41 588.83 834.16 589.73 833.08&#10;  C 593.92 828.04 590.08 821.68 584.03 821.18&#10;  Q 580.38 820.88 573.97 821.05&#10;  A 0.61 0.61 0.0 0 0 573.37 821.66&#10;  L 573.37 842.48&#10;  A 0.50 0.50 0.0 0 0 573.87 842.98&#10;  L 576.04 842.98&#10;  A 0.51 0.50 -0.0 0 0 576.55 842.48&#10;  L 576.55 836.55&#10;  A 0.56 0.56 0.0 0 1 577.11 835.99&#10;  L 582.87 835.99&#10;  A 1.21 1.20 72.3 0 1 583.85 836.50&#10;  L 587.91 842.33&#10;  A 1.55 1.54 -17.3 0 0 589.18 842.99&#10;  L 591.13 842.99&#10;  A 0.36 0.36 0.0 0 0 591.43 842.42" stroke="#a6a6a6"/>
<path data-index="20" d="M 630.43 843.01&#10;  Q 631.55 843.01 631.61 843.00&#10;  A 1.16 1.13 1.8 0 0 632.29 842.37&#10;  L 641.64 821.53&#10;  A 0.37 0.36 -78.2 0 0 641.31 821.02&#10;  L 639.06 821.02&#10;  A 0.84 0.83 -78.0 0 0 638.30 821.52&#10;  Q 634.58 829.86 630.79 838.30&#10;  Q 630.62 838.66 630.43 838.66&#10;  Q 630.24 838.66 630.08 838.30&#10;  Q 626.29 829.85 622.58 821.51&#10;  A 0.84 0.83 78.1 0 0 621.82 821.01&#10;  L 619.57 821.01&#10;  A 0.37 0.36 78.3 0 0 619.24 821.52&#10;  L 628.57 842.37&#10;  A 1.16 1.13 -1.7 0 0 629.25 842.99&#10;  Q 629.31 843.01 630.43 843.01" stroke="#a6a6a6"/>
<path data-index="21" d="M 673.56 821.59&#10;  A 0.57 0.57 0.0 0 0 672.99 821.02&#10;  L 670.95 821.02&#10;  A 0.57 0.57 0.0 0 0 670.38 821.59&#10;  L 670.38 842.41&#10;  A 0.57 0.57 0.0 0 0 670.95 842.98&#10;  L 672.99 842.98&#10;  A 0.57 0.57 0.0 0 0 673.56 842.41&#10;  L 673.56 821.59" stroke="#a6a6a6"/>
<path data-index="22" d="M 703.58 832.01&#10;  C 703.59 842.05 716.66 846.62 723.52 839.84&#10;  A 0.43 0.43 0.0 0 0 723.52 839.24&#10;  L 722.24 837.96&#10;  A 0.52 0.51 -40.4 0 0 721.57 837.91&#10;  Q 715.55 842.34 709.74 838.17&#10;  Q 706.77 836.05 706.77 832.01&#10;  Q 706.77 827.98 709.73 825.84&#10;  Q 715.54 821.67 721.56 826.09&#10;  A 0.52 0.51 40.3 0 0 722.23 826.04&#10;  L 723.51 824.76&#10;  A 0.43 0.43 0.0 0 0 723.51 824.16&#10;  C 716.65 817.39 703.58 821.97 703.58 832.01" stroke="#a6a6a6"/>
<path data-index="23" d="M 770.16 842.98&#10;  A 0.46 0.46 0.0 0 0 770.62 842.52&#10;  L 770.62 840.69&#10;  A 0.46 0.46 0.0 0 0 770.16 840.23&#10;  L 758.01 840.23&#10;  A 0.46 0.46 0.0 0 1 757.55 839.77&#10;  L 757.55 833.45&#10;  A 0.46 0.46 0.0 0 1 758.01 832.99&#10;  L 768.31 832.99&#10;  A 0.46 0.46 0.0 0 0 768.77 832.53&#10;  L 768.77 830.75&#10;  A 0.46 0.46 0.0 0 0 768.31 830.29&#10;  L 758.01 830.29&#10;  A 0.46 0.46 0.0 0 1 757.55 829.83&#10;  L 757.55 824.25&#10;  A 0.46 0.46 0.0 0 1 758.01 823.79&#10;  L 769.70 823.79&#10;  A 0.46 0.46 0.0 0 0 770.16 823.33&#10;  L 770.16 821.48&#10;  A 0.46 0.46 0.0 0 0 769.70 821.02&#10;  L 754.83 821.02&#10;  A 0.46 0.46 0.0 0 0 754.37 821.48&#10;  L 754.37 842.52&#10;  A 0.46 0.46 0.0 0 0 754.83 842.98&#10;  L 770.16 842.98" stroke="#a6a6a6"/>
<path data-index="24" d="M 799.57 839.74&#10;  A 0.74 0.73 -61.6 0 0 799.84 840.66&#10;  C 803.80 843.18 810.77 844.25 814.71 840.88&#10;  C 818.18 837.92 816.50 833.26 812.22 832.03&#10;  C 808.84 831.07 803.10 830.36 803.05 827.26&#10;  C 802.99 822.26 811.57 823.86 813.83 825.28&#10;  A 0.66 0.66 0.0 0 0 814.78 825.00&#10;  L 815.37 823.68&#10;  A 0.82 0.82 0.0 0 0 815.00 822.62&#10;  C 811.03 820.55 803.31 819.90 800.64 824.50&#10;  C 798.97 827.38 799.95 830.81 803.08 832.22&#10;  Q 805.19 833.18 810.34 834.39&#10;  C 813.90 835.23 814.71 838.79 810.66 839.92&#10;  Q 806.30 841.12 800.85 838.36&#10;  A 0.59 0.57 24.9 0 0 800.06 838.64&#10;  L 799.57 839.74" stroke="#a6a6a6"/>
<path data-index="25" d="M 684.35 765.50&#10;  L 684.41 776.82&#10;  A 0.35 0.35 0.0 0 0 684.76 777.17&#10;  L 691.90 777.14&#10;  A 5.81 5.56 -0.3 0 0 697.68 771.55&#10;  L 697.68 770.65&#10;  A 5.81 5.56 -0.3 0 0 691.84 765.12&#10;  L 684.70 765.15&#10;  A 0.35 0.35 0.0 0 0 684.35 765.50" stroke="#808080"/>
<path data-index="26" d="M 576.55 824.15&#10;  L 576.55 832.93&#10;  A 0.34 0.34 0.0 0 0 576.89 833.27&#10;  L 582.53 833.27&#10;  A 5.66 4.52 0.0 0 0 588.19 828.75&#10;  L 588.19 828.33&#10;  A 5.66 4.52 -0.0 0 0 582.53 823.81&#10;  L 576.89 823.81&#10;  A 0.34 0.34 0.0 0 0 576.55 824.15" stroke="#a6a6a6"/>
</g>
<path style="opacity: 1;" data-index="27" d="M 1275.00 0.00&#10;  L 1275.00 1275.00&#10;  L 0.00 1275.00&#10;  L 0.00 0.00&#10;  L 1275.00 0.00&#10;  Z&#10;  M 737.92 583.14&#10;  C 744.02 580.67 747.13 579.16 752.74 576.20&#10;  C 778.80 562.42 793.70 537.29 793.74 507.86&#10;  A 0.28 0.28 0.0 0 0 793.25 507.67&#10;  C 772.86 530.72 749.84 551.85 721.01 563.62&#10;  Q 714.84 566.15 708.74 568.36&#10;  Q 703.82 570.15 688.98 573.41&#10;  A 0.24 0.23 -18.9 0 1 688.73 573.29&#10;  L 688.61 573.03&#10;  A 0.38 0.38 0.0 0 1 688.82 572.50&#10;  Q 712.94 563.59 733.06 547.56&#10;  C 755.70 529.52 770.60 506.20 769.80 476.61&#10;  A 0.40 0.39 60.2 0 0 769.07 476.41&#10;  Q 763.32 485.68 756.55 493.09&#10;  C 752.53 497.49 750.32 500.31 745.98 504.48&#10;  C 729.40 520.40 710.70 532.71 689.86 544.36&#10;  Q 680.09 549.83 631.33 574.86&#10;  Q 609.80 585.91 594.16 597.66&#10;  C 583.27 605.85 574.16 615.53 568.79 628.18&#10;  C 562.10 643.93 567.54 659.70 574.49 674.68&#10;  A 6.97 6.88 35.7 0 1 575.11 678.34&#10;  C 572.64 702.42 584.80 724.59 609.80 729.27&#10;  C 614.83 730.21 621.45 730.06 626.75 730.05&#10;  Q 639.39 730.05 711.00 730.06&#10;  C 714.52 730.06 714.33 726.92 714.35 723.60&#10;  C 714.37 719.67 715.37 714.35 710.75 714.38&#10;  Q 684.00 714.51 647.82 714.32&#10;  C 633.83 714.24 633.37 698.94 633.36 688.98&#10;  Q 633.35 679.63 633.46 673.00&#10;  C 633.63 662.66 636.34 655.56 648.25 655.50&#10;  Q 671.73 655.38 710.00 655.53&#10;  Q 714.11 655.54 714.04 651.24&#10;  Q 713.90 643.25 713.86 642.92&#10;  C 713.28 638.92 709.18 640.19 706.39 639.81&#10;  A 0.23 0.23 0.0 0 1 706.36 639.36&#10;  Q 716.26 636.25 726.09 630.60&#10;  A 0.30 0.30 0.0 0 0 725.94 630.04&#10;  Q 713.02 630.09 702.25 629.81&#10;  Q 669.56 628.96 638.02 620.85&#10;  A 0.14 0.14 0.0 0 1 638.07 620.57&#10;  Q 659.85 622.11 679.99 622.73&#10;  Q 697.22 623.26 713.68 621.40&#10;  Q 723.82 620.26 734.11 616.66&#10;  Q 758.88 608.00 769.98 584.20&#10;  A 0.48 0.48 0.0 0 0 769.41 583.54&#10;  Q 750.42 588.90 732.45 592.42&#10;  Q 708.42 597.12 684.18 595.77&#10;  A 0.19 0.18 34.6 0 1 684.11 595.42&#10;  Q 685.63 594.77 686.69 594.64&#10;  Q 705.63 592.30 717.30 589.45&#10;  Q 727.29 587.01 731.87 585.37&#10;  Q 736.50 583.71 737.92 583.14&#10;  Z&#10;  M 577.88 583.88&#10;  A 0.19 0.19 0.0 0 1 577.82 583.53&#10;  Q 582.78 580.68 585.32 575.47&#10;  A 0.35 0.35 0.0 0 0 584.90 574.99&#10;  C 575.03 578.33 564.36 578.11 554.50 577.77&#10;  C 544.84 577.43 537.00 580.44 534.99 590.96&#10;  A 0.41 0.41 0.0 0 0 535.61 591.38&#10;  C 539.53 588.85 544.69 586.91 549.24 588.54&#10;  A 2.06 1.83 25.4 0 1 550.43 591.34&#10;  Q 549.58 592.67 547.49 592.77&#10;  Q 534.82 593.37 533.00 593.56&#10;  C 525.76 594.31 518.28 595.86 520.58 605.25&#10;  A 0.46 0.46 0.0 0 0 521.32 605.49&#10;  C 527.17 600.64 534.93 602.39 540.89 606.08&#10;  Q 556.11 615.53 560.12 633.03&#10;  A 0.46 0.45 46.8 0 0 561.00 633.06&#10;  Q 568.37 608.47 589.67 594.06&#10;  C 593.73 591.32 597.09 589.09 601.17 587.12&#10;  A 0.73 0.73 0.0 0 0 600.86 585.73&#10;  Q 590.05 585.69 577.88 583.88&#10;  Z&#10;  M 290.98 714.39&#10;  A 0.18 0.18 0.0 0 1 290.85 714.09&#10;  L 329.83 675.12&#10;  A 0.96 0.96 0.0 0 1 331.20 675.13&#10;  Q 362.88 707.82 380.17 725.83&#10;  C 382.65 728.42 384.62 729.86 388.01 729.94&#10;  Q 393.48 730.07 443.26 730.07&#10;  Q 444.84 730.07 445.73 729.69&#10;  C 447.55 728.90 446.97 726.45 446.01 725.48&#10;  Q 411.46 690.47 364.96 643.16&#10;  C 363.32 641.50 361.48 640.17 359.24 640.06&#10;  Q 354.15 639.81 349.84 640.03&#10;  C 347.10 640.18 345.37 641.26 343.45 643.20&#10;  Q 324.16 662.73 299.63 687.06&#10;  Q 297.64 689.03 297.22 689.81&#10;  Q 296.81 690.58 294.30 692.37&#10;  A 1.46 1.46 0.0 0 0 293.85 692.90&#10;  Q 293.60 693.40 293.38 693.63&#10;  Q 277.51 709.41 261.12 725.94&#10;  C 259.20 727.87 260.91 730.10 263.53 730.10&#10;  Q 322.26 729.97 350.01 730.15&#10;  Q 352.91 730.17 353.50 727.75&#10;  Q 354.10 725.29 353.63 717.30&#10;  Q 353.46 714.46 350.71 714.44&#10;  Q 313.78 714.20 290.98 714.39&#10;  Z&#10;  M 571.08 730.09&#10;  C 573.24 730.09 574.28 728.72 574.40 726.46&#10;  Q 574.60 722.56 574.46 718.58&#10;  C 574.36 715.97 573.68 714.30 570.85 714.32&#10;  Q 552.15 714.52 517.26 714.28&#10;  C 504.75 714.20 503.49 703.46 503.51 693.50&#10;  Q 503.53 682.38 503.51 643.98&#10;  Q 503.51 639.93 499.29 639.94&#10;  Q 479.22 640.00 452.22 639.95&#10;  C 448.52 639.94 445.94 639.49 445.92 643.99&#10;  Q 445.82 673.41 446.00 694.49&#10;  C 446.10 706.77 451.31 718.44 461.93 724.61&#10;  C 470.06 729.32 478.28 730.00 488.60 730.03&#10;  Q 508.10 730.07 571.08 730.09&#10;  Z&#10;  M 847.74 689.01&#10;  A 0.48 0.47 -26.5 0 1 848.01 688.21&#10;  C 858.85 686.63 869.55 680.12 872.13 669.09&#10;  C 876.51 650.38 860.97 639.98 844.25 639.97&#10;  Q 788.15 639.94 733.63 639.97&#10;  C 729.28 639.97 725.91 639.17 725.92 644.24&#10;  Q 725.96 660.47 725.93 726.24&#10;  Q 725.93 729.98 729.05 730.00&#10;  Q 744.11 730.05 771.25 730.07&#10;  C 775.49 730.07 778.41 730.66 778.40 725.65&#10;  Q 778.38 700.52 778.40 655.94&#10;  A 0.48 0.48 0.0 0 1 778.88 655.46&#10;  Q 798.26 655.41 809.48 655.61&#10;  C 815.51 655.72 820.90 658.58 820.13 665.60&#10;  C 819.35 672.64 811.35 673.36 805.50 673.25&#10;  Q 803.96 673.22 791.86 673.25&#10;  C 786.04 673.27 786.13 674.77 786.23 680.06&#10;  Q 786.29 683.34 789.17 686.32&#10;  Q 810.98 708.79 825.17 723.25&#10;  C 829.58 727.75 831.52 729.95 838.87 729.99&#10;  Q 863.70 730.11 882.43 730.06&#10;  C 884.81 730.06 884.93 727.17 883.54 725.74&#10;  Q 861.75 703.32 847.74 689.01&#10;  Z&#10;  M 946.36 730.03&#10;  Q 966.21 730.03 970.25 730.03&#10;  Q 972.55 730.03 972.54 727.52&#10;  Q 972.48 681.36 972.56 655.91&#10;  A 0.42 0.42 0.0 0 1 972.98 655.49&#10;  L 1011.87 655.49&#10;  A 1.77 1.76 -0.0 0 0 1013.64 653.73&#10;  L 1013.64 641.69&#10;  A 1.68 1.68 0.0 0 0 1011.97 640.02&#10;  Q 1005.06 639.97 946.36 639.97&#10;  Q 887.66 639.96 880.74 640.02&#10;  A 1.68 1.68 0.0 0 0 879.08 641.69&#10;  L 879.08 653.73&#10;  A 1.77 1.76 0.0 0 0 880.85 655.49&#10;  L 919.74 655.49&#10;  A 0.42 0.42 0.0 0 1 920.16 655.91&#10;  Q 920.23 681.36 920.17 727.52&#10;  Q 920.16 730.03 922.46 730.03&#10;  Q 926.50 730.03 946.36 730.03&#10;  Z&#10;  M 712.90 675.87&#10;  A 2.89 2.89 0.0 0 0 710.01 672.98&#10;  L 645.69 672.98&#10;  A 2.89 2.89 0.0 0 0 642.80 675.87&#10;  L 642.80 685.57&#10;  A 2.89 2.89 0.0 0 0 645.69 688.46&#10;  L 710.01 688.46&#10;  A 2.89 2.89 0.0 0 0 712.90 685.57&#10;  L 712.90 675.87&#10;  Z&#10;  M 383.82 786.18&#10;  A 0.26 0.26 0.0 0 0 383.56 786.45&#10;  C 384.05 802.13 410.26 803.01 412.09 788.24&#10;  C 413.31 778.38 403.85 776.33 395.90 773.38&#10;  Q 393.37 772.43 392.61 770.32&#10;  C 390.32 763.96 401.50 761.80 403.13 769.21&#10;  A 0.36 0.35 -6.0 0 0 403.48 769.49&#10;  L 410.92 769.49&#10;  A 0.25 0.24 -2.1 0 0 411.17 769.23&#10;  C 410.39 754.36 384.95 754.33 384.38 768.93&#10;  C 383.99 779.07 393.90 779.21 400.62 782.62&#10;  C 406.24 785.47 404.84 792.38 398.46 792.30&#10;  Q 392.34 792.21 391.48 786.46&#10;  A 0.34 0.33 84.9 0 0 391.15 786.18&#10;  L 383.82 786.18&#10;  Z&#10;  M 522.55 778.25&#10;  C 522.42 791.34 530.87 799.87 544.29 798.48&#10;  Q 555.86 797.29 558.81 785.87&#10;  A 0.24 0.24 0.0 0 0 558.58 785.57&#10;  L 550.77 785.57&#10;  A 0.39 0.39 0.0 0 0 550.40 785.83&#10;  Q 548.20 792.29 540.76 791.85&#10;  C 533.06 791.40 530.21 785.26 530.28 778.33&#10;  C 530.35 771.40 533.32 765.31 541.03 765.01&#10;  Q 548.48 764.72 550.55 771.23&#10;  A 0.39 0.39 0.0 0 0 550.91 771.49&#10;  L 558.72 771.65&#10;  A 0.24 0.24 0.0 0 0 558.95 771.36&#10;  Q 556.23 759.88 544.69 758.45&#10;  C 531.30 756.80 522.68 765.16 522.55 778.25&#10;  Z&#10;  M 454.82 778.32&#10;  Q 454.84 796.12 454.87 797.26&#10;  A 0.66 0.66 0.0 0 0 455.53 797.90&#10;  L 480.17 797.90&#10;  A 0.48 0.48 0.0 0 0 480.65 797.42&#10;  L 480.65 792.22&#10;  A 0.43 0.43 0.0 0 0 480.22 791.79&#10;  L 462.98 791.79&#10;  A 0.60 0.60 0.0 0 1 462.38 791.19&#10;  L 462.38 781.79&#10;  A 0.56 0.55 -0.0 0 1 462.94 781.24&#10;  L 478.44 781.24&#10;  A 0.49 0.49 0.0 0 0 478.93 780.75&#10;  Q 478.93 780.11 478.93 778.29&#10;  Q 478.93 776.47 478.92 775.82&#10;  A 0.49 0.49 0.0 0 0 478.43 775.34&#10;  L 462.93 775.37&#10;  A 0.56 0.55 -0.1 0 1 462.37 774.82&#10;  L 462.35 765.42&#10;  A 0.60 0.60 0.0 0 1 462.95 764.82&#10;  L 480.19 764.78&#10;  A 0.43 0.43 0.0 0 0 480.62 764.35&#10;  L 480.61 759.15&#10;  A 0.48 0.48 0.0 0 0 480.13 758.67&#10;  L 455.49 758.73&#10;  A 0.66 0.66 0.0 0 0 454.83 759.37&#10;  Q 454.80 760.51 454.82 778.32&#10;  Z&#10;  M 617.17 798.65&#10;  C 623.36 798.65 628.55 796.05 631.43 790.55&#10;  Q 632.91 787.71 632.89 780.21&#10;  Q 632.86 767.33 632.91 759.26&#10;  A 0.45 0.45 0.0 0 0 632.46 758.81&#10;  L 625.72 758.81&#10;  A 0.43 0.42 90.0 0 0 625.30 759.24&#10;  Q 625.42 774.53 625.21 783.94&#10;  C 625.09 788.98 622.02 791.70 617.18 791.69&#10;  C 612.34 791.68 609.27 788.96 609.17 783.92&#10;  Q 608.98 774.51 609.14 759.22&#10;  A 0.43 0.42 -89.9 0 0 608.72 758.79&#10;  L 601.98 758.77&#10;  A 0.45 0.45 0.0 0 0 601.53 759.22&#10;  Q 601.56 767.29 601.50 780.17&#10;  Q 601.46 787.67 602.93 790.52&#10;  C 605.80 796.03 610.98 798.64 617.17 798.65&#10;  Z&#10;  M 705.65 797.77&#10;  L 698.01 782.30&#10;  A 0.56 0.55 -26.6 0 1 698.26 781.56&#10;  Q 706.56 777.51 705.16 768.48&#10;  C 704.28 762.80 699.36 759.29 693.97 758.96&#10;  Q 689.98 758.72 677.42 758.82&#10;  A 0.60 0.60 0.0 0 0 676.82 759.42&#10;  L 676.82 797.65&#10;  A 0.35 0.35 0.0 0 0 677.17 798.00&#10;  L 684.01 798.00&#10;  A 0.36 0.36 0.0 0 0 684.37 797.64&#10;  L 684.37 783.19&#10;  A 0.52 0.52 0.0 0 1 684.89 782.67&#10;  L 689.13 782.67&#10;  A 1.04 1.03 76.3 0 1 690.05 783.24&#10;  L 697.26 797.85&#10;  A 0.28 0.25 -12.1 0 0 697.50 797.99&#10;  L 705.51 797.99&#10;  A 0.15 0.15 0.0 0 0 705.65 797.77&#10;  Z&#10;  M 756.38 759.19&#10;  A 0.39 0.39 0.0 0 0 755.99 758.80&#10;  L 749.21 758.80&#10;  A 0.39 0.39 0.0 0 0 748.82 759.19&#10;  L 748.82 797.61&#10;  A 0.39 0.39 0.0 0 0 749.21 798.00&#10;  L 755.99 798.00&#10;  A 0.39 0.39 0.0 0 0 756.38 797.61&#10;  L 756.38 759.19&#10;  Z&#10;  M 812.72 798.00&#10;  Q 815.68 798.00 816.08 797.98&#10;  A 0.45 0.44 -1.5 0 0 816.50 797.54&#10;  L 816.50 765.49&#10;  A 0.59 0.59 0.0 0 1 817.09 764.90&#10;  L 827.48 764.90&#10;  A 0.44 0.43 0.0 0 0 827.92 764.47&#10;  L 827.92 759.26&#10;  A 0.46 0.45 89.8 0 0 827.47 758.80&#10;  Q 820.33 758.80 812.72 758.80&#10;  Q 805.11 758.80 797.97 758.80&#10;  A 0.46 0.45 -89.8 0 0 797.51 759.26&#10;  L 797.51 764.47&#10;  A 0.44 0.43 0.0 0 0 797.95 764.90&#10;  L 808.34 764.90&#10;  A 0.59 0.59 0.0 0 1 808.93 765.49&#10;  L 808.93 797.54&#10;  A 0.45 0.44 1.5 0 0 809.36 797.98&#10;  Q 809.75 798.00 812.72 798.00&#10;  Z&#10;  M 883.80 798.00&#10;  Q 886.34 798.00 886.93 797.97&#10;  A 0.67 0.67 0.0 0 0 887.57 797.30&#10;  L 887.57 784.92&#10;  A 3.09 2.98 -32.3 0 1 887.91 783.53&#10;  L 900.63 759.01&#10;  A 0.15 0.14 14.3 0 0 900.50 758.80&#10;  L 892.54 758.80&#10;  A 0.48 0.48 0.0 0 0 892.11 759.07&#10;  L 884.09 775.98&#10;  A 0.34 0.34 0.0 0 1 883.90 776.15&#10;  Q 883.84 776.17 883.77 776.17&#10;  Q 883.71 776.17 883.65 776.15&#10;  A 0.34 0.34 0.0 0 1 883.46 775.98&#10;  L 875.41 759.09&#10;  A 0.48 0.48 0.0 0 0 874.98 758.82&#10;  L 867.02 758.83&#10;  A 0.15 0.14 -14.4 0 0 866.89 759.04&#10;  L 879.65 783.54&#10;  A 3.09 2.98 32.2 0 1 880.00 784.93&#10;  L 880.02 797.31&#10;  A 0.67 0.67 0.0 0 0 880.66 797.98&#10;  Q 881.25 798.00 883.80 798.00&#10;  Z&#10;  M 351.54 780.96&#10;  A 0.55 0.55 0.0 0 0 350.99 780.41&#10;  L 260.63 780.41&#10;  A 0.55 0.55 0.0 0 0 260.08 780.96&#10;  L 260.08 782.42&#10;  A 0.55 0.55 0.0 0 0 260.63 782.97&#10;  L 350.99 782.97&#10;  A 0.55 0.55 0.0 0 0 351.54 782.42&#10;  L 351.54 780.96&#10;  Z&#10;  M 1013.64 780.91&#10;  A 0.50 0.50 0.0 0 0 1013.14 780.41&#10;  L 922.70 780.41&#10;  A 0.50 0.50 0.0 0 0 922.20 780.91&#10;  L 922.20 782.47&#10;  A 0.50 0.50 0.0 0 0 922.70 782.97&#10;  L 1013.14 782.97&#10;  A 0.50 0.50 0.0 0 0 1013.64 782.47&#10;  L 1013.64 780.91&#10;  Z&#10;  M 479.57 839.75&#10;  A 0.74 0.73 -61.6 0 0 479.84 840.67&#10;  C 483.80 843.19 490.78 844.25 494.72 840.88&#10;  C 498.19 837.92 496.50 833.26 492.22 832.03&#10;  C 488.84 831.07 483.10 830.36 483.05 827.26&#10;  C 482.98 822.26 491.57 823.86 493.83 825.28&#10;  A 0.66 0.66 0.0 0 0 494.78 824.99&#10;  L 495.37 823.67&#10;  A 0.83 0.82 25.9 0 0 495.00 822.61&#10;  C 491.03 820.54 483.30 819.90 480.63 824.50&#10;  C 478.96 827.38 479.95 830.81 483.08 832.22&#10;  Q 485.19 833.18 490.34 834.39&#10;  C 493.90 835.23 494.72 838.79 490.67 839.92&#10;  Q 486.30 841.13 480.85 838.37&#10;  A 0.59 0.57 24.9 0 0 480.06 838.65&#10;  L 479.57 839.75&#10;  Z&#10;  M 542.09 840.22&#10;  L 529.93 840.23&#10;  A 0.39 0.38 -90.0 0 1 529.55 839.84&#10;  L 529.56 833.44&#10;  A 0.43 0.43 0.0 0 1 529.99 833.01&#10;  L 540.24 832.98&#10;  A 0.56 0.56 0.0 0 0 540.80 832.40&#10;  L 540.74 830.76&#10;  A 0.49 0.48 -0.6 0 0 540.25 830.29&#10;  L 529.93 830.30&#10;  A 0.38 0.38 0.0 0 1 529.55 829.92&#10;  L 529.55 824.13&#10;  A 0.35 0.35 0.0 0 1 529.91 823.78&#10;  L 541.64 823.80&#10;  A 0.52 0.52 0.0 0 0 542.16 823.29&#10;  L 542.18 821.65&#10;  A 0.62 0.62 0.0 0 0 541.56 821.02&#10;  L 527.02 821.00&#10;  A 0.65 0.65 0.0 0 0 526.37 821.65&#10;  L 526.37 842.52&#10;  A 0.46 0.45 0.0 0 0 526.83 842.97&#10;  L 542.03 842.99&#10;  A 0.61 0.61 0.0 0 0 542.65 842.36&#10;  L 542.60 840.72&#10;  A 0.52 0.51 88.8 0 0 542.09 840.22&#10;  Z&#10;  M 591.43 842.42&#10;  L 586.90 835.92&#10;  A 0.63 0.63 0.0 0 1 587.02 835.07&#10;  C 587.84 834.41 588.83 834.16 589.73 833.08&#10;  C 593.92 828.04 590.08 821.68 584.03 821.18&#10;  Q 580.38 820.88 573.97 821.05&#10;  A 0.61 0.61 0.0 0 0 573.37 821.66&#10;  L 573.37 842.48&#10;  A 0.50 0.50 0.0 0 0 573.87 842.98&#10;  L 576.04 842.98&#10;  A 0.51 0.50 -0.0 0 0 576.55 842.48&#10;  L 576.55 836.55&#10;  A 0.56 0.56 0.0 0 1 577.11 835.99&#10;  L 582.87 835.99&#10;  A 1.21 1.20 72.3 0 1 583.85 836.50&#10;  L 587.91 842.33&#10;  A 1.55 1.54 -17.3 0 0 589.18 842.99&#10;  L 591.13 842.99&#10;  A 0.36 0.36 0.0 0 0 591.43 842.42&#10;  Z&#10;  M 630.43 843.01&#10;  Q 631.55 843.01 631.61 843.00&#10;  A 1.16 1.13 1.8 0 0 632.29 842.37&#10;  L 641.64 821.53&#10;  A 0.37 0.36 -78.2 0 0 641.31 821.02&#10;  L 639.06 821.02&#10;  A 0.84 0.83 -78.0 0 0 638.30 821.52&#10;  Q 634.58 829.86 630.79 838.30&#10;  Q 630.62 838.66 630.43 838.66&#10;  Q 630.24 838.66 630.08 838.30&#10;  Q 626.29 829.85 622.58 821.51&#10;  A 0.84 0.83 78.1 0 0 621.82 821.01&#10;  L 619.57 821.01&#10;  A 0.37 0.36 78.3 0 0 619.24 821.52&#10;  L 628.57 842.37&#10;  A 1.16 1.13 -1.7 0 0 629.25 842.99&#10;  Q 629.31 843.01 630.43 843.01&#10;  Z&#10;  M 673.56 821.59&#10;  A 0.57 0.57 0.0 0 0 672.99 821.02&#10;  L 670.95 821.02&#10;  A 0.57 0.57 0.0 0 0 670.38 821.59&#10;  L 670.38 842.41&#10;  A 0.57 0.57 0.0 0 0 670.95 842.98&#10;  L 672.99 842.98&#10;  A 0.57 0.57 0.0 0 0 673.56 842.41&#10;  L 673.56 821.59&#10;  Z&#10;  M 703.58 832.01&#10;  C 703.59 842.05 716.66 846.62 723.52 839.84&#10;  A 0.43 0.43 0.0 0 0 723.52 839.24&#10;  L 722.24 837.96&#10;  A 0.52 0.51 -40.4 0 0 721.57 837.91&#10;  Q 715.55 842.34 709.74 838.17&#10;  Q 706.77 836.05 706.77 832.01&#10;  Q 706.77 827.98 709.73 825.84&#10;  Q 715.54 821.67 721.56 826.09&#10;  A 0.52 0.51 40.3 0 0 722.23 826.04&#10;  L 723.51 824.76&#10;  A 0.43 0.43 0.0 0 0 723.51 824.16&#10;  C 716.65 817.39 703.58 821.97 703.58 832.01&#10;  Z&#10;  M 770.16 842.98&#10;  A 0.46 0.46 0.0 0 0 770.62 842.52&#10;  L 770.62 840.69&#10;  A 0.46 0.46 0.0 0 0 770.16 840.23&#10;  L 758.01 840.23&#10;  A 0.46 0.46 0.0 0 1 757.55 839.77&#10;  L 757.55 833.45&#10;  A 0.46 0.46 0.0 0 1 758.01 832.99&#10;  L 768.31 832.99&#10;  A 0.46 0.46 0.0 0 0 768.77 832.53&#10;  L 768.77 830.75&#10;  A 0.46 0.46 0.0 0 0 768.31 830.29&#10;  L 758.01 830.29&#10;  A 0.46 0.46 0.0 0 1 757.55 829.83&#10;  L 757.55 824.25&#10;  A 0.46 0.46 0.0 0 1 758.01 823.79&#10;  L 769.70 823.79&#10;  A 0.46 0.46 0.0 0 0 770.16 823.33&#10;  L 770.16 821.48&#10;  A 0.46 0.46 0.0 0 0 769.70 821.02&#10;  L 754.83 821.02&#10;  A 0.46 0.46 0.0 0 0 754.37 821.48&#10;  L 754.37 842.52&#10;  A 0.46 0.46 0.0 0 0 754.83 842.98&#10;  L 770.16 842.98&#10;  Z&#10;  M 799.57 839.74&#10;  A 0.74 0.73 -61.6 0 0 799.84 840.66&#10;  C 803.80 843.18 810.77 844.25 814.71 840.88&#10;  C 818.18 837.92 816.50 833.26 812.22 832.03&#10;  C 808.84 831.07 803.10 830.36 803.05 827.26&#10;  C 802.99 822.26 811.57 823.86 813.83 825.28&#10;  A 0.66 0.66 0.0 0 0 814.78 825.00&#10;  L 815.37 823.68&#10;  A 0.82 0.82 0.0 0 0 815.00 822.62&#10;  C 811.03 820.55 803.31 819.90 800.64 824.50&#10;  C 798.97 827.38 799.95 830.81 803.08 832.22&#10;  Q 805.19 833.18 810.34 834.39&#10;  C 813.90 835.23 814.71 838.79 810.66 839.92&#10;  Q 806.30 841.12 800.85 838.36&#10;  A 0.59 0.57 24.9 0 0 800.06 838.64&#10;  L 799.57 839.74&#10;  Z" fill="#ffffff"/>
<path data-index="28" d="M 737.92 583.14&#10;  Q 736.50 583.71 731.87 585.37&#10;  Q 727.29 587.01 717.30 589.45&#10;  Q 705.63 592.30 686.69 594.64&#10;  Q 685.63 594.77 684.11 595.42&#10;  A 0.19 0.18 34.6 0 0 684.18 595.77&#10;  Q 708.42 597.12 732.45 592.42&#10;  Q 750.42 588.90 769.41 583.54&#10;  A 0.48 0.48 0.0 0 1 769.98 584.20&#10;  Q 758.88 608.00 734.11 616.66&#10;  Q 723.82 620.26 713.68 621.40&#10;  Q 697.22 623.26 679.99 622.73&#10;  Q 659.85 622.11 638.07 620.57&#10;  A 0.14 0.14 0.0 0 0 638.02 620.85&#10;  Q 669.56 628.96 702.25 629.81&#10;  Q 713.02 630.09 725.94 630.04&#10;  A 0.30 0.30 0.0 0 1 726.09 630.60&#10;  Q 716.26 636.25 706.36 639.36&#10;  A 0.23 0.23 0.0 0 0 706.39 639.81&#10;  C 709.18 640.19 713.28 638.92 713.86 642.92&#10;  Q 713.90 643.25 714.04 651.24&#10;  Q 714.11 655.54 710.00 655.53&#10;  Q 671.73 655.38 648.25 655.50&#10;  C 636.34 655.56 633.63 662.66 633.46 673.00&#10;  Q 633.35 679.63 633.36 688.98&#10;  C 633.37 698.94 633.83 714.24 647.82 714.32&#10;  Q 684.00 714.51 710.75 714.38&#10;  C 715.37 714.35 714.37 719.67 714.35 723.60&#10;  C 714.33 726.92 714.52 730.06 711.00 730.06&#10;  Q 639.39 730.05 626.75 730.05&#10;  C 621.45 730.06 614.83 730.21 609.80 729.27&#10;  C 584.80 724.59 572.64 702.42 575.11 678.34&#10;  A 6.97 6.88 35.7 0 0 574.49 674.68&#10;  C 567.54 659.70 562.10 643.93 568.79 628.18&#10;  C 574.16 615.53 583.27 605.85 594.16 597.66&#10;  Q 609.80 585.91 631.33 574.86&#10;  Q 680.09 549.83 689.86 544.36&#10;  C 710.70 532.71 729.40 520.40 745.98 504.48&#10;  C 750.32 500.31 752.53 497.49 756.55 493.09&#10;  Q 763.32 485.68 769.07 476.41&#10;  A 0.40 0.39 60.2 0 1 769.80 476.61&#10;  C 770.60 506.20 755.70 529.52 733.06 547.56&#10;  Q 712.94 563.59 688.82 572.50&#10;  A 0.38 0.38 0.0 0 0 688.61 573.03&#10;  L 688.73 573.29&#10;  A 0.24 0.23 -18.9 0 0 688.98 573.41&#10;  Q 703.82 570.15 708.74 568.36&#10;  Q 714.84 566.15 721.01 563.62&#10;  C 749.84 551.85 772.86 530.72 793.25 507.67&#10;  A 0.28 0.28 0.0 0 1 793.74 507.86&#10;  C 793.70 537.29 778.80 562.42 752.74 576.20&#10;  C 747.13 579.16 744.02 580.67 737.92 583.14&#10;  Z" fill="#df0100"/>
<path data-index="29" d="M 577.88 583.88&#10;  Q 590.05 585.69 600.86 585.73&#10;  A 0.73 0.73 0.0 0 1 601.17 587.12&#10;  C 597.09 589.09 593.73 591.32 589.67 594.06&#10;  Q 568.37 608.47 561.00 633.06&#10;  A 0.46 0.45 46.8 0 1 560.12 633.03&#10;  Q 556.11 615.53 540.89 606.08&#10;  C 534.93 602.39 527.17 600.64 521.32 605.49&#10;  A 0.46 0.46 0.0 0 1 520.58 605.25&#10;  C 518.28 595.86 525.76 594.31 533.00 593.56&#10;  Q 534.82 593.37 547.49 592.77&#10;  Q 549.58 592.67 550.43 591.34&#10;  A 2.06 1.83 25.4 0 0 549.24 588.54&#10;  C 544.69 586.91 539.53 588.85 535.61 591.38&#10;  A 0.41 0.41 0.0 0 1 534.99 590.96&#10;  C 537.00 580.44 544.84 577.43 554.50 577.77&#10;  C 564.36 578.11 575.03 578.33 584.90 574.99&#10;  A 0.35 0.35 0.0 0 1 585.32 575.47&#10;  Q 582.78 580.68 577.82 583.53&#10;  A 0.19 0.19 0.0 0 0 577.88 583.88&#10;  Z" fill="#df0100"/>
<path data-index="30" d="M 290.98 714.39&#10;  Q 313.78 714.20 350.71 714.44&#10;  Q 353.46 714.46 353.63 717.30&#10;  Q 354.10 725.29 353.50 727.75&#10;  Q 352.91 730.17 350.01 730.15&#10;  Q 322.26 729.97 263.53 730.10&#10;  C 260.91 730.10 259.20 727.87 261.12 725.94&#10;  Q 277.51 709.41 293.38 693.63&#10;  Q 293.60 693.40 293.85 692.90&#10;  A 1.46 1.46 0.0 0 1 294.30 692.37&#10;  Q 296.81 690.58 297.22 689.81&#10;  Q 297.64 689.03 299.63 687.06&#10;  Q 324.16 662.73 343.45 643.20&#10;  C 345.37 641.26 347.10 640.18 349.84 640.03&#10;  Q 354.15 639.81 359.24 640.06&#10;  C 361.48 640.17 363.32 641.50 364.96 643.16&#10;  Q 411.46 690.47 446.01 725.48&#10;  C 446.97 726.45 447.55 728.90 445.73 729.69&#10;  Q 444.84 730.07 443.26 730.07&#10;  Q 393.48 730.07 388.01 729.94&#10;  C 384.62 729.86 382.65 728.42 380.17 725.83&#10;  Q 362.88 707.82 331.20 675.13&#10;  A 0.96 0.96 0.0 0 0 329.83 675.12&#10;  L 290.85 714.09&#10;  A 0.18 0.18 0.0 0 0 290.98 714.39&#10;  Z" fill="#df0100"/>
<path data-index="31" d="M 574.40 726.46&#10;  C 574.28 728.72 573.24 730.09 571.08 730.09&#10;  Q 508.10 730.07 488.60 730.03&#10;  C 478.28 730.00 470.06 729.32 461.93 724.61&#10;  C 451.31 718.44 446.10 706.77 446.00 694.49&#10;  Q 445.82 673.41 445.92 643.99&#10;  C 445.94 639.49 448.52 639.94 452.22 639.95&#10;  Q 479.22 640.00 499.29 639.94&#10;  Q 503.51 639.93 503.51 643.98&#10;  Q 503.53 682.38 503.51 693.50&#10;  C 503.49 703.46 504.75 714.20 517.26 714.28&#10;  Q 552.15 714.52 570.85 714.32&#10;  C 573.68 714.30 574.36 715.97 574.46 718.58&#10;  Q 574.60 722.56 574.40 726.46&#10;  Z" fill="#df0100"/>
<path style="opacity: 1;" data-index="32" d="M 847.74 689.01&#10;  Q 861.75 703.32 883.54 725.74&#10;  C 884.93 727.17 884.81 730.06 882.43 730.06&#10;  Q 863.70 730.11 838.87 729.99&#10;  C 831.52 729.95 829.58 727.75 825.17 723.25&#10;  Q 810.98 708.79 789.17 686.32&#10;  Q 786.29 683.34 786.23 680.06&#10;  C 786.13 674.77 786.04 673.27 791.86 673.25&#10;  Q 803.96 673.22 805.50 673.25&#10;  C 811.35 673.36 819.35 672.64 820.13 665.60&#10;  C 820.90 658.58 815.51 655.72 809.48 655.61&#10;  Q 798.26 655.41 778.88 655.46&#10;  A 0.48 0.48 0.0 0 0 778.40 655.94&#10;  Q 778.38 700.52 778.40 725.65&#10;  C 778.41 730.66 775.49 730.07 771.25 730.07&#10;  Q 744.11 730.05 729.05 730.00&#10;  Q 725.93 729.98 725.93 726.24&#10;  Q 725.96 660.47 725.92 644.24&#10;  C 725.91 639.17 729.28 639.97 733.63 639.97&#10;  Q 788.15 639.94 844.25 639.97&#10;  C 860.97 639.98 876.51 650.38 872.13 669.09&#10;  C 869.55 680.12 858.85 686.63 848.01 688.21&#10;  A 0.48 0.47 -26.5 0 0 847.74 689.01&#10;  Z" fill="#df0100"/>
<path data-index="33" d="M 946.36 639.97&#10;  Q 1005.06 639.97 1011.97 640.02&#10;  A 1.68 1.68 0.0 0 1 1013.64 641.69&#10;  L 1013.64 653.73&#10;  A 1.77 1.76 0.0 0 1 1011.87 655.49&#10;  L 972.98 655.49&#10;  A 0.42 0.42 0.0 0 0 972.56 655.91&#10;  Q 972.48 681.36 972.54 727.52&#10;  Q 972.55 730.03 970.25 730.03&#10;  Q 966.21 730.03 946.36 730.03&#10;  Q 926.50 730.03 922.46 730.03&#10;  Q 920.16 730.03 920.17 727.52&#10;  Q 920.23 681.36 920.16 655.91&#10;  A 0.42 0.42 0.0 0 0 919.74 655.49&#10;  L 880.85 655.49&#10;  A 1.77 1.76 0.0 0 1 879.08 653.73&#10;  L 879.08 641.69&#10;  A 1.68 1.68 0.0 0 1 880.74 640.02&#10;  Q 887.66 639.96 946.36 639.97&#10;  Z" fill="#df0100"/>
<rect rx="2.89" height="15.48" width="70.10" y="672.98" x="642.80" fill="#df0100"/>
<path data-index="34" d="M 391.48 786.46&#10;  Q 392.34 792.21 398.46 792.30&#10;  C 404.84 792.38 406.24 785.47 400.62 782.62&#10;  C 393.90 779.21 383.99 779.07 384.38 768.93&#10;  C 384.95 754.33 410.39 754.36 411.17 769.23&#10;  A 0.25 0.24 -2.1 0 1 410.92 769.49&#10;  L 403.48 769.49&#10;  A 0.36 0.35 -6.0 0 1 403.13 769.21&#10;  C 401.50 761.80 390.32 763.96 392.61 770.32&#10;  Q 393.37 772.43 395.90 773.38&#10;  C 403.85 776.33 413.31 778.38 412.09 788.24&#10;  C 410.26 803.01 384.05 802.13 383.56 786.45&#10;  A 0.26 0.26 0.0 0 1 383.82 786.18&#10;  L 391.15 786.18&#10;  A 0.34 0.33 84.9 0 1 391.48 786.46&#10;  Z" fill="#000000"/>
<path data-index="35" d="M 530.28 778.33&#10;  C 530.21 785.26 533.06 791.40 540.76 791.85&#10;  Q 548.20 792.29 550.40 785.83&#10;  A 0.39 0.39 0.0 0 1 550.77 785.57&#10;  L 558.58 785.57&#10;  A 0.24 0.24 0.0 0 1 558.81 785.87&#10;  Q 555.86 797.29 544.29 798.48&#10;  C 530.87 799.87 522.42 791.34 522.55 778.25&#10;  C 522.68 765.16 531.30 756.80 544.69 758.45&#10;  Q 556.23 759.88 558.95 771.36&#10;  A 0.24 0.24 0.0 0 1 558.72 771.65&#10;  L 550.91 771.49&#10;  A 0.39 0.39 0.0 0 1 550.55 771.23&#10;  Q 548.48 764.72 541.03 765.01&#10;  C 533.32 765.31 530.35 771.40 530.28 778.33&#10;  Z" fill="#000000"/>
<path data-index="36" d="M 478.93 778.29&#10;  Q 478.93 780.11 478.93 780.75&#10;  A 0.49 0.49 0.0 0 1 478.44 781.24&#10;  L 462.94 781.24&#10;  A 0.56 0.55 -0.0 0 0 462.38 781.79&#10;  L 462.38 791.19&#10;  A 0.60 0.60 0.0 0 0 462.98 791.79&#10;  L 480.22 791.79&#10;  A 0.43 0.43 0.0 0 1 480.65 792.22&#10;  L 480.65 797.42&#10;  A 0.48 0.48 0.0 0 1 480.17 797.90&#10;  L 455.53 797.90&#10;  A 0.66 0.66 0.0 0 1 454.87 797.26&#10;  Q 454.84 796.12 454.82 778.32&#10;  Q 454.80 760.51 454.83 759.37&#10;  A 0.66 0.66 0.0 0 1 455.49 758.73&#10;  L 480.13 758.67&#10;  A 0.48 0.48 0.0 0 1 480.61 759.15&#10;  L 480.62 764.35&#10;  A 0.43 0.43 0.0 0 1 480.19 764.78&#10;  L 462.95 764.82&#10;  A 0.60 0.60 0.0 0 0 462.35 765.42&#10;  L 462.37 774.82&#10;  A 0.56 0.55 -0.1 0 0 462.93 775.37&#10;  L 478.43 775.34&#10;  A 0.49 0.49 0.0 0 1 478.92 775.82&#10;  Q 478.93 776.47 478.93 778.29&#10;  Z" fill="#000000"/>
<path data-index="37" d="M 617.18 791.69&#10;  C 622.02 791.70 625.09 788.98 625.21 783.94&#10;  Q 625.42 774.53 625.30 759.24&#10;  A 0.43 0.42 90.0 0 1 625.72 758.81&#10;  L 632.46 758.81&#10;  A 0.45 0.45 0.0 0 1 632.91 759.26&#10;  Q 632.86 767.33 632.89 780.21&#10;  Q 632.91 787.71 631.43 790.55&#10;  C 628.55 796.05 623.36 798.65 617.17 798.65&#10;  C 610.98 798.64 605.80 796.03 602.93 790.52&#10;  Q 601.46 787.67 601.50 780.17&#10;  Q 601.56 767.29 601.53 759.22&#10;  A 0.45 0.45 0.0 0 1 601.98 758.77&#10;  L 608.72 758.79&#10;  A 0.43 0.42 -89.9 0 1 609.14 759.22&#10;  Q 608.98 774.51 609.17 783.92&#10;  C 609.27 788.96 612.34 791.68 617.18 791.69&#10;  Z" fill="#000000"/>
<path data-index="38" d="M 705.65 797.77&#10;  A 0.15 0.15 0.0 0 1 705.51 797.99&#10;  L 697.50 797.99&#10;  A 0.28 0.25 -12.1 0 1 697.26 797.85&#10;  L 690.05 783.24&#10;  A 1.04 1.03 76.3 0 0 689.13 782.67&#10;  L 684.89 782.67&#10;  A 0.52 0.52 0.0 0 0 684.37 783.19&#10;  L 684.37 797.64&#10;  A 0.36 0.36 0.0 0 1 684.01 798.00&#10;  L 677.17 798.00&#10;  A 0.35 0.35 0.0 0 1 676.82 797.65&#10;  L 676.82 759.42&#10;  A 0.60 0.60 0.0 0 1 677.42 758.82&#10;  Q 689.98 758.72 693.97 758.96&#10;  C 699.36 759.29 704.28 762.80 705.16 768.48&#10;  Q 706.56 777.51 698.26 781.56&#10;  A 0.56 0.55 -26.6 0 0 698.01 782.30&#10;  L 705.65 797.77&#10;  Z&#10;  M 684.35 765.50&#10;  L 684.41 776.82&#10;  A 0.35 0.35 0.0 0 0 684.76 777.17&#10;  L 691.90 777.14&#10;  A 5.81 5.56 -0.3 0 0 697.68 771.55&#10;  L 697.68 770.65&#10;  A 5.81 5.56 -0.3 0 0 691.84 765.12&#10;  L 684.70 765.15&#10;  A 0.35 0.35 0.0 0 0 684.35 765.50&#10;  Z" fill="#000000"/>
<rect rx="0.39" height="39.20" width="7.56" y="758.80" x="748.82" fill="#000000"/>
<path data-index="39" d="M 812.72 758.80&#10;  Q 820.33 758.80 827.47 758.80&#10;  A 0.46 0.45 89.8 0 1 827.92 759.26&#10;  L 827.92 764.47&#10;  A 0.44 0.43 -0.0 0 1 827.48 764.90&#10;  L 817.09 764.90&#10;  A 0.59 0.59 0.0 0 0 816.50 765.49&#10;  L 816.50 797.54&#10;  A 0.45 0.44 -1.5 0 1 816.08 797.98&#10;  Q 815.68 798.00 812.72 798.00&#10;  Q 809.75 798.00 809.36 797.98&#10;  A 0.45 0.44 1.5 0 1 808.93 797.54&#10;  L 808.93 765.49&#10;  A 0.59 0.59 0.0 0 0 808.34 764.90&#10;  L 797.95 764.90&#10;  A 0.44 0.43 0.0 0 1 797.51 764.47&#10;  L 797.51 759.26&#10;  A 0.46 0.45 -89.8 0 1 797.97 758.80&#10;  Q 805.11 758.80 812.72 758.80&#10;  Z" fill="#000000"/>
<path style="opacity: 1;" data-index="40" d="M 883.77 776.17&#10;  Q 883.84 776.17 883.90 776.15&#10;  A 0.34 0.34 0.0 0 0 884.09 775.98&#10;  L 892.11 759.07&#10;  A 0.48 0.48 0.0 0 1 892.54 758.80&#10;  L 900.50 758.80&#10;  A 0.15 0.14 14.3 0 1 900.63 759.01&#10;  L 887.91 783.53&#10;  A 3.09 2.98 -32.3 0 0 887.57 784.92&#10;  L 887.57 797.30&#10;  A 0.67 0.67 0.0 0 1 886.93 797.97&#10;  Q 886.34 798.00 883.80 798.00&#10;  Q 881.25 798.00 880.66 797.98&#10;  A 0.67 0.67 0.0 0 1 880.02 797.31&#10;  L 880.00 784.93&#10;  A 3.09 2.98 32.2 0 0 879.65 783.54&#10;  L 866.89 759.04&#10;  A 0.15 0.14 -14.4 0 1 867.02 758.83&#10;  L 874.98 758.82&#10;  A 0.48 0.48 0.0 0 1 875.41 759.09&#10;  L 883.46 775.98&#10;  A 0.34 0.34 0.0 0 0 883.65 776.15&#10;  Q 883.71 776.17 883.77 776.17&#10;  Z" fill="#000000"/>
<path data-index="41" d="M 684.35 765.50&#10;  A 0.35 0.35 0.0 0 1 684.70 765.15&#10;  L 691.84 765.12&#10;  A 5.81 5.56 -0.3 0 1 697.68 770.65&#10;  L 697.68 771.55&#10;  A 5.81 5.56 -0.3 0 1 691.90 777.14&#10;  L 684.76 777.17&#10;  A 0.35 0.35 0.0 0 1 684.41 776.82&#10;  L 684.35 765.50&#10;  Z" fill="#ffffff"/>
<rect rx="0.55" height="2.56" width="91.46" y="780.41" x="260.08" fill="#000000"/>
<rect rx="0.50" height="2.56" width="91.44" y="780.41" x="922.20" fill="#000000"/>
<path data-index="42" d="M 479.57 839.75&#10;  L 480.06 838.65&#10;  A 0.59 0.57 24.9 0 1 480.85 838.37&#10;  Q 486.30 841.13 490.67 839.92&#10;  C 494.72 838.79 493.90 835.23 490.34 834.39&#10;  Q 485.19 833.18 483.08 832.22&#10;  C 479.95 830.81 478.96 827.38 480.63 824.50&#10;  C 483.30 819.90 491.03 820.54 495.00 822.61&#10;  A 0.83 0.82 25.9 0 1 495.37 823.67&#10;  L 494.78 824.99&#10;  A 0.66 0.66 0.0 0 1 493.83 825.28&#10;  C 491.57 823.86 482.98 822.26 483.05 827.26&#10;  C 483.10 830.36 488.84 831.07 492.22 832.03&#10;  C 496.50 833.26 498.19 837.92 494.72 840.88&#10;  C 490.78 844.25 483.80 843.19 479.84 840.67&#10;  A 0.74 0.73 -61.6 0 1 479.57 839.75&#10;  Z" fill="#4d4d4d"/>
<path data-index="43" d="M 542.09 840.22&#10;  A 0.52 0.51 88.8 0 1 542.60 840.72&#10;  L 542.65 842.36&#10;  A 0.61 0.61 0.0 0 1 542.03 842.99&#10;  L 526.83 842.97&#10;  A 0.46 0.45 0.0 0 1 526.37 842.52&#10;  L 526.37 821.65&#10;  A 0.65 0.65 0.0 0 1 527.02 821.00&#10;  L 541.56 821.02&#10;  A 0.62 0.62 0.0 0 1 542.18 821.65&#10;  L 542.16 823.29&#10;  A 0.52 0.52 0.0 0 1 541.64 823.80&#10;  L 529.91 823.78&#10;  A 0.35 0.35 0.0 0 0 529.55 824.13&#10;  L 529.55 829.92&#10;  A 0.38 0.38 0.0 0 0 529.93 830.30&#10;  L 540.25 830.29&#10;  A 0.49 0.48 -0.6 0 1 540.74 830.76&#10;  L 540.80 832.40&#10;  A 0.56 0.56 0.0 0 1 540.24 832.98&#10;  L 529.99 833.01&#10;  A 0.43 0.43 0.0 0 0 529.56 833.44&#10;  L 529.55 839.84&#10;  A 0.39 0.38 -90.0 0 0 529.93 840.23&#10;  L 542.09 840.22&#10;  Z" fill="#4d4d4d"/>
<path data-index="44" d="M 591.43 842.42&#10;  A 0.36 0.36 0.0 0 1 591.13 842.99&#10;  L 589.18 842.99&#10;  A 1.55 1.54 -17.3 0 1 587.91 842.33&#10;  L 583.85 836.50&#10;  A 1.21 1.20 72.3 0 0 582.87 835.99&#10;  L 577.11 835.99&#10;  A 0.56 0.56 0.0 0 0 576.55 836.55&#10;  L 576.55 842.48&#10;  A 0.51 0.50 -0.0 0 1 576.04 842.98&#10;  L 573.87 842.98&#10;  A 0.50 0.50 0.0 0 1 573.37 842.48&#10;  L 573.37 821.66&#10;  A 0.61 0.61 0.0 0 1 573.97 821.05&#10;  Q 580.38 820.88 584.03 821.18&#10;  C 590.08 821.68 593.92 828.04 589.73 833.08&#10;  C 588.83 834.16 587.84 834.41 587.02 835.07&#10;  A 0.63 0.63 0.0 0 0 586.90 835.92&#10;  L 591.43 842.42&#10;  Z&#10;  M 576.55 824.15&#10;  L 576.55 832.93&#10;  A 0.34 0.34 0.0 0 0 576.89 833.27&#10;  L 582.53 833.27&#10;  A 5.66 4.52 0.0 0 0 588.19 828.75&#10;  L 588.19 828.33&#10;  A 5.66 4.52 -0.0 0 0 582.53 823.81&#10;  L 576.89 823.81&#10;  A 0.34 0.34 0.0 0 0 576.55 824.15&#10;  Z" fill="#4d4d4d"/>
<path data-index="45" d="M 630.43 838.66&#10;  Q 630.62 838.66 630.79 838.30&#10;  Q 634.58 829.86 638.30 821.52&#10;  A 0.84 0.83 -78.0 0 1 639.06 821.02&#10;  L 641.31 821.02&#10;  A 0.37 0.36 -78.2 0 1 641.64 821.53&#10;  L 632.29 842.37&#10;  A 1.16 1.13 1.8 0 1 631.61 843.00&#10;  Q 631.55 843.01 630.43 843.01&#10;  Q 629.31 843.01 629.25 842.99&#10;  A 1.16 1.13 -1.7 0 1 628.57 842.37&#10;  L 619.24 821.52&#10;  A 0.37 0.36 78.3 0 1 619.57 821.01&#10;  L 621.82 821.01&#10;  A 0.84 0.83 78.1 0 1 622.58 821.51&#10;  Q 626.29 829.85 630.08 838.30&#10;  Q 630.24 838.66 630.43 838.66&#10;  Z" fill="#4d4d4d"/>
<rect rx="0.57" height="21.96" width="3.18" y="821.02" x="670.38" fill="#4d4d4d"/>
<path data-index="46" d="M 706.77 832.01&#10;  Q 706.77 836.05 709.74 838.17&#10;  Q 715.55 842.34 721.57 837.91&#10;  A 0.52 0.51 -40.4 0 1 722.24 837.96&#10;  L 723.52 839.24&#10;  A 0.43 0.43 0.0 0 1 723.52 839.84&#10;  C 716.66 846.62 703.59 842.05 703.58 832.01&#10;  C 703.58 821.97 716.65 817.39 723.51 824.16&#10;  A 0.43 0.43 0.0 0 1 723.51 824.76&#10;  L 722.23 826.04&#10;  A 0.52 0.51 40.3 0 1 721.56 826.09&#10;  Q 715.54 821.67 709.73 825.84&#10;  Q 706.77 827.98 706.77 832.01&#10;  Z" fill="#4d4d4d"/>
<path data-index="47" d="M 770.16 842.98&#10;  L 754.83 842.98&#10;  A 0.46 0.46 0.0 0 1 754.37 842.52&#10;  L 754.37 821.48&#10;  A 0.46 0.46 0.0 0 1 754.83 821.02&#10;  L 769.70 821.02&#10;  A 0.46 0.46 0.0 0 1 770.16 821.48&#10;  L 770.16 823.33&#10;  A 0.46 0.46 0.0 0 1 769.70 823.79&#10;  L 758.01 823.79&#10;  A 0.46 0.46 0.0 0 0 757.55 824.25&#10;  L 757.55 829.83&#10;  A 0.46 0.46 0.0 0 0 758.01 830.29&#10;  L 768.31 830.29&#10;  A 0.46 0.46 0.0 0 1 768.77 830.75&#10;  L 768.77 832.53&#10;  A 0.46 0.46 0.0 0 1 768.31 832.99&#10;  L 758.01 832.99&#10;  A 0.46 0.46 0.0 0 0 757.55 833.45&#10;  L 757.55 839.77&#10;  A 0.46 0.46 0.0 0 0 758.01 840.23&#10;  L 770.16 840.23&#10;  A 0.46 0.46 0.0 0 1 770.62 840.69&#10;  L 770.62 842.52&#10;  A 0.46 0.46 0.0 0 1 770.16 842.98&#10;  Z" fill="#4d4d4d"/>
<path data-index="48" d="M 799.57 839.74&#10;  L 800.06 838.64&#10;  A 0.59 0.57 24.9 0 1 800.85 838.36&#10;  Q 806.30 841.12 810.66 839.92&#10;  C 814.71 838.79 813.90 835.23 810.34 834.39&#10;  Q 805.19 833.18 803.08 832.22&#10;  C 799.95 830.81 798.97 827.38 800.64 824.50&#10;  C 803.31 819.90 811.03 820.55 815.00 822.62&#10;  A 0.82 0.82 0.0 0 1 815.37 823.68&#10;  L 814.78 825.00&#10;  A 0.66 0.66 0.0 0 1 813.83 825.28&#10;  C 811.57 823.86 802.99 822.26 803.05 827.26&#10;  C 803.10 830.36 808.84 831.07 812.22 832.03&#10;  C 816.50 833.26 818.18 837.92 814.71 840.88&#10;  C 810.77 844.25 803.80 843.18 799.84 840.66&#10;  A 0.74 0.73 -61.6 0 1 799.57 839.74&#10;  Z" fill="#4d4d4d"/>
<path data-index="49" d="M 576.55 824.15&#10;  A 0.34 0.34 0.0 0 1 576.89 823.81&#10;  L 582.53 823.81&#10;  A 5.66 4.52 -0.0 0 1 588.19 828.33&#10;  L 588.19 828.75&#10;  A 5.66 4.52 0.0 0 1 582.53 833.27&#10;  L 576.89 833.27&#10;  A 0.34 0.34 0.0 0 1 576.55 832.93&#10;  L 576.55 824.15&#10;  Z" fill="#ffffff"/>
</svg>